<svg width="79" height="15" viewBox="0 0 79 15" fill="none" xmlns="http://www.w3.org/2000/svg">
<g clip-path="url(#clip0_1024_195)">
<path d="M10.1146 4.22062H8.41535C8.35018 3.85758 8.22846 3.53814 8.05115 3.26221C7.87289 2.98628 7.65538 2.75214 7.39757 2.55979C7.13975 2.36734 6.85122 2.22214 6.53111 2.12409C6.21579 2.02614 5.87943 1.97707 5.52385 1.97707C4.88172 1.97707 4.30569 2.13866 3.79773 2.46174C3.2936 2.78482 2.89395 3.25857 2.59971 3.88307C2.30931 4.50748 2.16368 5.2698 2.16368 6.17013C2.16368 7.07775 2.30931 7.84371 2.59971 8.46811C2.89395 9.09261 3.2946 9.56454 3.80352 9.88398C4.31148 10.2035 4.88365 10.3632 5.51812 10.3632C5.87082 10.3632 6.20431 10.316 6.52058 10.2216C6.83973 10.1236 7.12823 9.9802 7.38604 9.7914C7.64386 9.60269 7.86238 9.37209 8.03969 9.09981C8.22179 8.82398 8.34635 8.50808 8.41535 8.15232L10.1146 8.15778C10.0236 8.70599 9.84823 9.2106 9.58658 9.67159C9.32877 10.129 8.99616 10.5248 8.58979 10.8588C8.18726 11.1891 7.72627 11.445 7.20681 11.6266C6.68735 11.8081 6.12092 11.8988 5.50753 11.8988C4.54241 11.8988 3.68176 11.6702 2.92653 11.2127C2.17131 10.7516 1.57612 10.0927 1.14004 9.23599C0.708755 8.37917 0.492188 7.35732 0.492188 6.17013C0.492188 4.9794 0.709754 3.95744 1.14583 3.10436C1.58191 2.24754 2.1771 1.59045 2.93233 1.133C3.6866 0.672004 4.54529 0.441406 5.50753 0.441406C6.09983 0.441406 6.65091 0.526802 7.1627 0.6974C7.67833 0.864355 8.14128 1.11124 8.55148 1.43797C8.96168 1.76105 9.30094 2.15678 9.57026 2.62515C9.83861 3.08979 10.0197 3.62161 10.1146 4.22062ZM15.521 11.9151C14.7361 11.9151 14.0518 11.7354 13.4681 11.376C12.8835 11.0166 12.4292 10.5138 12.1062 9.86768C11.7832 9.22143 11.6213 8.46639 11.6213 7.60229C11.6213 6.73464 11.7832 5.97596 12.1062 5.32606C12.4292 4.67625 12.8835 4.17165 13.4681 3.81224C14.0518 3.45284 14.7361 3.27313 15.521 3.27313C16.305 3.27313 16.9893 3.45284 17.574 3.81224C18.1576 4.17165 18.6119 4.67625 18.9349 5.32606C19.2579 5.97596 19.4198 6.73464 19.4198 7.60229C19.4198 8.46639 19.2579 9.22143 18.9349 9.86768C18.6119 10.5138 18.1576 11.0166 17.574 11.376C16.9893 11.7354 16.305 11.9151 15.521 11.9151ZM15.5258 10.5483C16.0347 10.5483 16.4555 10.414 16.789 10.1453C17.1235 9.87669 17.3698 9.51911 17.5299 9.07259C17.6938 8.62606 17.7753 8.13421 17.7753 7.59692C17.7753 7.06318 17.6938 6.57314 17.5299 6.12661C17.3698 5.67645 17.1235 5.31522 16.789 5.04294C16.4555 4.77065 16.0347 4.63446 15.5258 4.63446C15.014 4.63446 14.5895 4.77065 14.2521 5.04294C13.9176 5.31522 13.6694 5.67645 13.5055 6.12661C13.3464 6.57314 13.2659 7.06318 13.2659 7.59692C13.2659 8.13421 13.3464 8.62606 13.5055 9.07259C13.6694 9.51911 13.9176 9.87669 14.2521 10.1453C14.5895 10.414 15.014 10.5483 15.5258 10.5483ZM21.237 11.7464V3.38201H22.8002V4.74343H22.9037C23.0781 4.28234 23.3628 3.92294 23.7586 3.66522C24.1544 3.40386 24.6279 3.27313 25.1799 3.27313C25.7387 3.27313 26.2073 3.40386 26.585 3.66522C26.9654 3.92658 27.2472 4.28598 27.4284 4.74343H27.5156C27.7159 4.29691 28.0331 3.94115 28.4683 3.67605C28.9043 3.40741 29.4238 3.27313 30.0266 3.27313C30.7847 3.27313 31.4039 3.51092 31.8831 3.98648C32.3661 4.46205 32.6076 5.17904 32.6076 6.13745V11.7464H30.9793V6.28993C30.9793 5.7236 30.825 5.3134 30.5163 5.05923C30.2077 4.80516 29.8388 4.67807 29.4103 4.67807C28.8803 4.67807 28.4682 4.84148 28.175 5.1682C27.8807 5.49128 27.7331 5.90695 27.7331 6.41519V11.7464H26.1105V6.18652C26.1105 5.73271 25.9697 5.36784 25.686 5.09191C25.4032 4.81599 25.0342 4.67807 24.5809 4.67807C24.2723 4.67807 23.9867 4.75973 23.726 4.92314C23.4682 5.08281 23.2593 5.30612 23.0992 5.59287C22.943 5.87973 22.8654 6.21192 22.8654 6.58943V11.7464H21.237ZM34.79 14.883V3.38201H36.38V4.73797H36.516C36.6099 4.56373 36.7461 4.36228 36.9243 4.1335C37.1026 3.90482 37.3489 3.70509 37.6652 3.53449C37.9805 3.36025 38.3983 3.27313 38.9169 3.27313C39.5925 3.27313 40.1954 3.44373 40.7254 3.78502C41.2554 4.12622 41.6713 4.61817 41.9723 5.26079C42.277 5.90331 42.4295 6.67655 42.4295 7.58053C42.4295 8.4845 42.279 9.25957 41.9781 9.90573C41.6762 10.5483 41.2621 11.0438 40.7359 11.3924C40.2098 11.7373 39.6088 11.9098 38.9341 11.9098C38.4252 11.9098 38.0102 11.8244 37.6863 11.6538C37.3671 11.4832 37.117 11.2835 36.9349 11.0548C36.7537 10.8261 36.6138 10.6228 36.516 10.4448H36.4183V14.883H34.79ZM36.3848 7.56423C36.3848 8.15232 36.47 8.66785 36.6406 9.11073C36.8122 9.55361 37.0585 9.90037 37.3815 10.1508C37.7045 10.3977 38.1003 10.5211 38.569 10.5211C39.0549 10.5211 39.4622 10.3922 39.789 10.1345C40.1149 9.87315 40.3621 9.51911 40.5289 9.07259C40.6995 8.62606 40.7848 8.12328 40.7848 7.56423C40.7848 7.01238 40.7014 6.51688 40.5346 6.07755C40.3717 5.63831 40.1245 5.29165 39.7938 5.03748C39.467 4.78331 39.0587 4.65631 38.569 4.65631C38.0965 4.65631 37.6978 4.77794 37.371 5.02118C37.048 5.26433 36.8026 5.6038 36.6358 6.0395C36.4691 6.4751 36.3848 6.98334 36.3848 7.56423ZM45.8826 0.593893V11.7464H44.2543V0.593893H45.8826ZM51.6772 11.9151C50.8539 11.9151 50.1437 11.7391 49.5485 11.387C48.9562 11.0312 48.4991 10.5321 48.1761 9.88944C47.8569 9.24328 47.6969 8.48632 47.6969 7.61867C47.6969 6.76185 47.8569 6.00681 48.1761 5.35327C48.4991 4.69983 48.9495 4.18976 49.5265 3.82317C50.1073 3.45648 50.7858 3.27313 51.5631 3.27313C52.0356 3.27313 52.4928 3.35115 52.9356 3.50727C53.3784 3.6634 53.7761 3.90847 54.1278 4.24247C54.4805 4.57639 54.7575 5.01026 54.9617 5.5439C55.1648 6.0739 55.2664 6.71834 55.2664 7.47712V8.05427H48.617V6.8345H53.6706C53.6706 6.40609 53.5835 6.02675 53.409 5.69639C53.2346 5.36238 52.9902 5.0992 52.6739 4.90675C52.3615 4.7144 51.9953 4.61817 51.5736 4.61817C51.1165 4.61817 50.7178 4.73069 50.3756 4.95582C50.0383 5.17721 49.7766 5.46771 49.5917 5.82711C49.4105 6.18287 49.3195 6.5695 49.3195 6.98698V7.93993C49.3195 8.49898 49.4172 8.97463 49.6137 9.36663C49.8131 9.75871 50.091 10.0582 50.4466 10.2651C50.8031 10.4685 51.2181 10.5701 51.6934 10.5701C52.0021 10.5701 52.2839 10.5266 52.5378 10.4395C52.7918 10.3487 53.0113 10.2143 53.1972 10.0365C53.3822 9.85858 53.524 9.63891 53.6218 9.37755L55.1629 9.6553C55.0393 10.1091 54.8179 10.5066 54.4987 10.8479C54.1824 11.1855 53.7847 11.4487 53.3055 11.6375C52.8301 11.8226 52.2877 11.9151 51.6772 11.9151ZM60.9776 3.38201V4.689H56.4079V3.38201H60.9776ZM57.6337 1.37807H59.2621V9.29043C59.2621 9.60623 59.309 9.84411 59.4029 10.0038C59.4978 10.1599 59.6195 10.267 59.7681 10.325C59.9204 10.3796 60.0863 10.4068 60.2636 10.4068C60.3949 10.4068 60.5089 10.3977 60.6067 10.3796C60.7044 10.3614 60.7811 10.3469 60.8357 10.336L61.13 11.681C61.0351 11.7173 60.9009 11.7537 60.7265 11.79C60.552 11.8298 60.3345 11.8516 60.0729 11.8552C59.6445 11.8625 59.2458 11.7863 58.8749 11.6266C58.5049 11.4668 58.2049 11.22 57.9768 10.886C57.7478 10.552 57.6337 10.1327 57.6337 9.62808V1.37807ZM66.293 11.9151C65.4697 11.9151 64.7595 11.7391 64.1643 11.387C63.572 11.0312 63.1149 10.5321 62.7919 9.88944C62.4727 9.24328 62.3127 8.48632 62.3127 7.61867C62.3127 6.76185 62.4727 6.00681 62.7919 5.35327C63.1149 4.69983 63.5653 4.18976 64.1423 3.82317C64.7231 3.45648 65.4016 3.27313 66.1789 3.27313C66.6514 3.27313 67.1086 3.35115 67.5514 3.50727C67.9941 3.6634 68.3919 3.90847 68.7436 4.24247C69.0963 4.57639 69.3733 5.01026 69.5775 5.5439C69.7806 6.0739 69.8822 6.71834 69.8822 7.47712V8.05427H63.2328V6.8345H68.2864C68.2864 6.40609 68.1993 6.02675 68.0248 5.69639C67.8504 5.36238 67.606 5.0992 67.2897 4.90675C66.9773 4.7144 66.6111 4.61817 66.1894 4.61817C65.7323 4.61817 65.3336 4.73069 64.9914 4.95582C64.6541 5.17721 64.3924 5.46771 64.2074 5.82711C64.0263 6.18287 63.9353 6.5695 63.9353 6.98698V7.93993C63.9353 8.49898 64.033 8.97463 64.2295 9.36663C64.4288 9.75871 64.7068 10.0582 65.0624 10.2651C65.4189 10.4685 65.8339 10.5701 66.3092 10.5701C66.6178 10.5701 66.8997 10.5266 67.1536 10.4395C67.4076 10.3487 67.6271 10.2143 67.813 10.0365C67.998 9.85858 68.1398 9.63891 68.2376 9.37755L69.7787 9.6553C69.6551 10.1091 69.4337 10.5066 69.1145 10.8479C68.7982 11.1855 68.4005 11.4487 67.9213 11.6375C67.4459 11.8226 66.9035 11.9151 66.293 11.9151ZM74.8199 11.9098C74.1443 11.9098 73.5415 11.7373 73.0115 11.3924C72.4853 11.0438 72.0712 10.5483 71.7703 9.90573C71.4722 9.25957 71.3236 8.4845 71.3236 7.58053C71.3236 6.67655 71.4742 5.90331 71.7761 5.26079C72.0808 4.61817 72.4977 4.12622 73.0277 3.78502C73.5577 3.44373 74.1586 3.27313 74.8305 3.27313C75.3499 3.27313 75.7669 3.36025 76.0831 3.53449C76.4023 3.70509 76.6496 3.90482 76.824 4.1335C77.0013 4.36228 77.1393 4.56373 77.2371 4.73797H77.3358V0.593893H78.9642V11.7464H77.3732V10.4448H77.2371C77.1393 10.6228 76.9975 10.8261 76.8125 11.0548C76.6314 11.2835 76.3812 11.4832 76.0611 11.6538C75.7419 11.8244 75.3279 11.9098 74.8199 11.9098ZM75.1794 10.5211C75.6471 10.5211 76.0429 10.3977 76.3659 10.1508C76.6927 9.90037 76.9399 9.55361 77.1067 9.11073C77.2773 8.66785 77.3626 8.15232 77.3626 7.56423C77.3626 6.98334 77.2793 6.4751 77.1125 6.0395C76.9457 5.6038 76.7004 5.26433 76.3774 5.02118C76.0544 4.77794 75.6547 4.65631 75.1794 4.65631C74.6886 4.65631 74.2804 4.78331 73.9536 5.03748C73.6267 5.29165 73.3804 5.63831 73.2137 6.07755C73.0498 6.51688 72.9683 7.01238 72.9683 7.56423C72.9683 8.12328 73.0517 8.62606 73.2185 9.07259C73.3862 9.51911 73.6325 9.87315 73.9593 10.1345C74.2899 10.3922 74.6963 10.5211 75.1794 10.5211Z" fill="#35784C"/>
</g>
<defs>
<clipPath id="clip0_1024_195">
<rect width="78.472" height="14.4416" fill="white" transform="translate(0.492188 0.441406)"/>
</clipPath>
</defs>
</svg>
