<svg width="101" height="108" viewBox="0 0 101 108" fill="none" xmlns="http://www.w3.org/2000/svg">
<g clip-path="url(#clip0_1025_222)">
<g clip-path="url(#clip1_1025_222)">
<path d="M21.9594 25.9605L43.0335 96.0992C43.6643 98.1958 46.9269 98.6067 48.2141 96.7152L64.3592 71.1363L93.5 64C95.9116 63.4786 96.6621 59.0212 94.5 58L26.025 23.3445C23.8629 22.3225 21.3639 23.98 21.9594 25.9605Z" fill="white"/>
<path d="M96.7321 55.2712L25.3274 15.8565C22.988 14.5176 19.9431 14.7716 17.848 16.4565C15.6206 18.1768 14.8002 20.9236 15.5018 23.5439L36.6319 102.404C37.3699 105.155 39.5857 107.088 42.507 107.428C43.3686 107.478 44.2311 107.528 45.0237 107.316C46.8716 106.82 48.3772 105.574 49.2149 103.946L61.9829 80.3068L81.9207 106.134C83.0018 107.53 84.6647 107.926 86.2489 107.502C86.777 107.36 87.2696 107.088 87.7623 106.815C89.5324 105.499 89.957 102.857 88.506 101.14L68.4014 75.2177L95.3327 68.0018C97.9732 67.2945 100.061 65.0499 100.317 62.3136C100.637 59.2793 99.2393 56.705 96.7321 55.2712ZM60.1523 68.7235C59.0962 69.0062 58.1454 69.6819 57.5981 70.8119L43.544 97.0417L24.1332 24.601L89.8909 60.8952L60.1868 68.8538L60.1523 68.7235Z" fill="white" fill-opacity="0.6"/>
<path d="M10.278 17.9584C10.1298 18.0047 9.98167 18.0511 9.81718 18.0453L2.02257 17.9108C1.15163 17.897 0.430123 17.1506 0.416714 16.241C0.403019 15.3304 1.09499 14.5988 1.96684 14.6123L9.76145 14.7468C10.6324 14.7606 11.3539 15.507 11.3673 16.4166C11.3817 17.1562 10.9201 17.7575 10.278 17.9584Z" fill="white"/>
<path d="M12.2911 11.5114C11.7381 11.7126 11.1153 11.5791 10.7038 11.1628L5.77927 5.79976C5.25476 5.21852 5.27941 4.28252 5.87097 3.75834C6.46252 3.23416 7.40802 3.25126 7.93252 3.83251L12.9031 9.17878C13.4276 9.76003 13.4026 10.6951 12.811 11.2193C12.6595 11.3774 12.4757 11.4443 12.2911 11.5114Z" fill="white"/>
<path d="M19.0855 10.6141C18.8354 10.684 18.6226 10.6917 18.3456 10.6657C17.4879 10.4915 16.9969 9.69625 17.1586 8.92557L18.8714 1.55725C19.0705 0.724385 19.9033 0.232813 20.6969 0.373202C21.5549 0.548319 22.0459 1.34353 21.8839 2.11328L20.1711 9.4816C20.0554 10.0324 19.6357 10.4603 19.0855 10.6141Z" fill="white"/>
</g>
</g>
<defs>
<clipPath id="clip0_1025_222">
<rect width="100.362" height="107.665" fill="white"/>
</clipPath>
<clipPath id="clip1_1025_222">
<rect width="100.362" height="107.665" fill="white"/>
</clipPath>
</defs>
</svg>
