<svg width="19" height="17" viewBox="0 0 19 17" fill="none" xmlns="http://www.w3.org/2000/svg">
<g clip-path="url(#clip0_1049_252)">
<path d="M18.5725 6.52232C18.5725 6.67783 18.4807 6.84747 18.2969 7.03125L14.4481 10.7846L15.3599 16.0859C15.367 16.1354 15.3705 16.2061 15.3705 16.298C15.3705 16.4464 15.3334 16.5719 15.2592 16.6744C15.185 16.7769 15.0772 16.8281 14.9358 16.8281C14.8015 16.8281 14.6602 16.7857 14.5117 16.7009L9.75112 14.1987L4.99051 16.7009C4.83501 16.7857 4.69364 16.8281 4.56641 16.8281C4.41797 16.8281 4.30664 16.7769 4.23242 16.6744C4.1582 16.5719 4.12109 16.4464 4.12109 16.298C4.12109 16.2556 4.12816 16.1849 4.1423 16.0859L5.05413 10.7846L1.19475 7.03125C1.01804 6.8404 0.929688 6.67076 0.929688 6.52232C0.929688 6.26079 1.1276 6.09822 1.52344 6.0346L6.84598 5.2606L9.23158 0.436384C9.36588 0.146578 9.53906 0.00167465 9.75112 0.00167465C9.96317 0.00167465 10.1363 0.146578 10.2706 0.436384L12.6562 5.2606L17.9788 6.0346C18.3746 6.09822 18.5725 6.26079 18.5725 6.52232Z" fill="#FFCF0F" fill-opacity="0.75"/>
</g>
<defs>
<clipPath id="clip0_1049_252">
<rect width="17.6429" height="16.8265" fill="white" transform="matrix(1 0 0 -1 0.929688 16.8281)"/>
</clipPath>
</defs>
</svg>
