<svg width="12" height="10" viewBox="0 0 12 10" fill="none" xmlns="http://www.w3.org/2000/svg">
<g clip-path="url(#clip0_1050_257)">
<path fill-rule="evenodd" clip-rule="evenodd" d="M10.4777 1.05587C10.5459 0.986238 10.6274 0.930919 10.7173 0.893154C10.8072 0.855389 10.9037 0.835938 11.0012 0.835938C11.0987 0.835938 11.1952 0.855389 11.2851 0.893154C11.375 0.930919 11.4564 0.986238 11.5247 1.05587C11.8107 1.34487 11.8147 1.81187 11.5347 2.10587L5.62168 9.09587C5.55455 9.16959 5.47308 9.22884 5.38226 9.26999C5.29144 9.31115 5.19318 9.33334 5.09349 9.33521C4.99379 9.33708 4.89477 9.3186 4.80247 9.28088C4.71017 9.24317 4.62653 9.18702 4.55668 9.11587L0.958679 5.46987C0.819917 5.32836 0.742188 5.13807 0.742188 4.93987C0.742188 4.74168 0.819917 4.55139 0.958679 4.40987C1.02693 4.34024 1.10838 4.28492 1.19827 4.24715C1.28816 4.20939 1.38468 4.18994 1.48218 4.18994C1.57968 4.18994 1.6762 4.20939 1.76609 4.24715C1.85598 4.28492 1.93743 4.34024 2.00568 4.40987L5.05768 7.50287L10.4577 1.07787C10.4639 1.07014 10.4706 1.0628 10.4777 1.05587Z" fill="black" fill-opacity="0.75"/>
</g>
<defs>
<clipPath id="clip0_1050_257">
<rect width="10.9998" height="8.4994" fill="white" transform="translate(0.742188 0.835938)"/>
</clipPath>
</defs>
</svg>
