<svg width="12" height="9" viewBox="0 0 12 9" fill="none" xmlns="http://www.w3.org/2000/svg">
<g clip-path="url(#clip0_687_114)">
<path fill-rule="evenodd" clip-rule="evenodd" d="M10.2667 0.41134C10.335 0.341706 10.4164 0.286388 10.5063 0.248623C10.5962 0.210858 10.6927 0.191406 10.7902 0.191406C10.8877 0.191406 10.9843 0.210858 11.0742 0.248623C11.164 0.286388 11.2455 0.341706 11.3137 0.41134C11.5997 0.70034 11.6037 1.16734 11.3237 1.46134L5.41074 8.45134C5.34361 8.52506 5.26214 8.58431 5.17132 8.62546C5.0805 8.66662 4.98224 8.68881 4.88255 8.69068C4.78286 8.69255 4.68383 8.67407 4.59153 8.63635C4.49923 8.59864 4.4156 8.54249 4.34574 8.47134L0.747742 4.82534C0.608979 4.68383 0.53125 4.49354 0.53125 4.29534C0.53125 4.09715 0.608979 3.90685 0.747742 3.76534C0.815988 3.69571 0.89744 3.64039 0.98733 3.60262C1.07722 3.56486 1.17374 3.54541 1.27124 3.54541C1.36874 3.54541 1.46526 3.56486 1.55515 3.60262C1.64504 3.64039 1.7265 3.69571 1.79474 3.76534L4.84674 6.85834L10.2467 0.43334C10.253 0.425612 10.2596 0.418265 10.2667 0.41134Z" fill="black" fill-opacity="0.75"/>
</g>
<defs>
<clipPath id="clip0_687_114">
<rect width="10.9998" height="8.4994" fill="white" transform="translate(0.53125 0.191406)"/>
</clipPath>
</defs>
</svg>
