<svg width="19" height="17" viewBox="0 0 19 17" fill="none" xmlns="http://www.w3.org/2000/svg">
<g clip-path="url(#clip0_754_65)">
<path d="M18.3147 6.60045C18.3147 6.75595 18.2228 6.9256 18.0391 7.10938L14.1903 10.8627L15.1021 16.1641C15.1092 16.2135 15.1127 16.2842 15.1127 16.3761C15.1127 16.5246 15.0756 16.65 15.0014 16.7525C14.9272 16.855 14.8194 16.9062 14.678 16.9062C14.5437 16.9062 14.4023 16.8638 14.2539 16.779L9.4933 14.2768L4.7327 16.779C4.57719 16.8638 4.43583 16.9062 4.30859 16.9062C4.16016 16.9062 4.04883 16.855 3.97461 16.7525C3.90039 16.65 3.86328 16.5246 3.86328 16.3761C3.86328 16.3337 3.87035 16.263 3.88449 16.1641L4.79632 10.8627L0.936942 7.10938C0.760231 6.91853 0.671875 6.74888 0.671875 6.60045C0.671875 6.33891 0.869792 6.17634 1.26562 6.11272L6.58817 5.33873L8.97377 0.514509C9.10807 0.224703 9.28125 0.0797997 9.4933 0.0797997C9.70536 0.0797997 9.87853 0.224703 10.0128 0.514509L12.3984 5.33873L17.721 6.11272C18.1168 6.17634 18.3147 6.33891 18.3147 6.60045Z" fill="#FFCF0F" fill-opacity="0.75"/>
</g>
<defs>
<clipPath id="clip0_754_65">
<rect width="17.6429" height="16.8265" fill="white" transform="matrix(1 0 0 -1 0.671875 16.9062)"/>
</clipPath>
</defs>
</svg>
