<svg width="12" height="9" viewBox="0 0 12 9" fill="none" xmlns="http://www.w3.org/2000/svg">
<g clip-path="url(#clip0_1050_259)">
<path fill-rule="evenodd" clip-rule="evenodd" d="M10.4699 0.657434C10.5381 0.5878 10.6196 0.532481 10.7095 0.494717C10.7993 0.456952 10.8959 0.4375 10.9934 0.4375C11.0909 0.4375 11.1874 0.456952 11.2773 0.494717C11.3672 0.532481 11.4486 0.5878 11.5169 0.657434C11.8029 0.946434 11.8069 1.41343 11.5269 1.70743L5.61387 8.69743C5.54673 8.77116 5.46526 8.8304 5.37444 8.87156C5.28363 8.91271 5.18536 8.9349 5.08567 8.93677C4.98598 8.93865 4.88696 8.92016 4.79466 8.88245C4.70236 8.84473 4.61872 8.78858 4.54887 8.71743L0.950867 5.07143C0.812104 4.92992 0.734375 4.73963 0.734375 4.54143C0.734375 4.34324 0.812104 4.15295 0.950867 4.01143C1.01911 3.9418 1.10057 3.88648 1.19046 3.84872C1.28035 3.81095 1.37687 3.7915 1.47437 3.7915C1.57187 3.7915 1.66839 3.81095 1.75828 3.84872C1.84817 3.88648 1.92962 3.9418 1.99787 4.01143L5.04987 7.10443L10.4499 0.679434C10.4561 0.671706 10.4628 0.664359 10.4699 0.657434Z" fill="black" fill-opacity="0.75"/>
</g>
<defs>
<clipPath id="clip0_1050_259">
<rect width="10.9998" height="8.4994" fill="white" transform="translate(0.734375 0.4375)"/>
</clipPath>
</defs>
</svg>
