<svg width="12" height="9" viewBox="0 0 12 9" fill="none" xmlns="http://www.w3.org/2000/svg">
<g clip-path="url(#clip0_754_63)">
<path fill-rule="evenodd" clip-rule="evenodd" d="M10.6027 0.645715C10.6709 0.576081 10.7524 0.520763 10.8423 0.482998C10.9322 0.445233 11.0287 0.425781 11.1262 0.425781C11.2237 0.425781 11.3202 0.445233 11.4101 0.482998C11.5 0.520763 11.5814 0.576081 11.6497 0.645715C11.9357 0.934715 11.9397 1.40172 11.6597 1.69572L5.74668 8.68572C5.67955 8.75944 5.59808 8.81869 5.50726 8.85984C5.41644 8.90099 5.31818 8.92318 5.21849 8.92506C5.11879 8.92693 5.01977 8.90844 4.92747 8.87073C4.83517 8.83301 4.75153 8.77686 4.68168 8.70572L1.08368 5.05972C0.944917 4.9182 0.867188 4.72791 0.867188 4.52972C0.867188 4.33152 0.944917 4.14123 1.08368 3.99972C1.15193 3.93008 1.23338 3.87476 1.32327 3.837C1.41316 3.79923 1.50968 3.77978 1.60718 3.77978C1.70468 3.77978 1.8012 3.79923 1.89109 3.837C1.98098 3.87476 2.06243 3.93008 2.13068 3.99972L5.18268 7.09272L10.5827 0.667715C10.5889 0.659987 10.5956 0.65264 10.6027 0.645715Z" fill="white" fill-opacity="0.75"/>
</g>
<defs>
<clipPath id="clip0_754_63">
<rect width="10.9998" height="8.4994" fill="white" transform="translate(0.867188 0.425781)"/>
</clipPath>
</defs>
</svg>
