<svg width="18" height="17" viewBox="0 0 18 17" fill="none" xmlns="http://www.w3.org/2000/svg">
<g clip-path="url(#clip0_1049_249)">
<path d="M17.6429 6.52232C17.6429 6.67783 17.551 6.84747 17.3672 7.03125L13.5184 10.7846L14.4302 16.0859C14.4373 16.1354 14.4408 16.2061 14.4408 16.298C14.4408 16.4464 14.4037 16.5719 14.3295 16.6744C14.2553 16.7769 14.1475 16.8281 14.0061 16.8281C13.8718 16.8281 13.7305 16.7857 13.582 16.7009L8.82143 14.1987L4.06083 16.7009C3.90532 16.7857 3.76395 16.8281 3.63672 16.8281C3.48828 16.8281 3.37695 16.7769 3.30273 16.6744C3.22852 16.5719 3.19141 16.4464 3.19141 16.298C3.19141 16.2556 3.19847 16.1849 3.21261 16.0859L4.12444 10.7846L0.265067 7.03125C0.0883557 6.8404 0 6.67076 0 6.52232C0 6.26079 0.197917 6.09822 0.59375 6.0346L5.91629 5.2606L8.3019 0.436384C8.4362 0.146578 8.60938 0.00167465 8.82143 0.00167465C9.03348 0.00167465 9.20666 0.146578 9.34096 0.436384L11.7266 5.2606L17.0491 6.0346C17.4449 6.09822 17.6429 6.26079 17.6429 6.52232Z" fill="#FFCF0F" fill-opacity="0.75"/>
</g>
<defs>
<clipPath id="clip0_1049_249">
<rect width="17.6429" height="16.8265" fill="white" transform="matrix(1 0 0 -1 0 16.8281)"/>
</clipPath>
</defs>
</svg>
