<svg width="19" height="17" viewBox="0 0 19 17" fill="none" xmlns="http://www.w3.org/2000/svg">
<g clip-path="url(#clip0_1049_250)">
<path d="M18.2835 6.52232C18.2835 6.67783 18.1916 6.84747 18.0078 7.03125L14.159 10.7846L15.0709 16.0859C15.0779 16.1354 15.0815 16.2061 15.0815 16.298C15.0815 16.4464 15.0444 16.5719 14.9701 16.6744C14.8959 16.7769 14.7881 16.8281 14.6468 16.8281C14.5125 16.8281 14.3711 16.7857 14.2227 16.7009L9.46205 14.1987L4.70145 16.7009C4.54594 16.7857 4.40458 16.8281 4.27734 16.8281C4.12891 16.8281 4.01758 16.7769 3.94336 16.6744C3.86914 16.5719 3.83203 16.4464 3.83203 16.298C3.83203 16.2556 3.8391 16.1849 3.85324 16.0859L4.76507 10.7846L0.905692 7.03125C0.728981 6.8404 0.640625 6.67076 0.640625 6.52232C0.640625 6.26079 0.838542 6.09822 1.23438 6.0346L6.55692 5.2606L8.94252 0.436384C9.07682 0.146578 9.25 0.00167465 9.46205 0.00167465C9.67411 0.00167465 9.84728 0.146578 9.98158 0.436384L12.3672 5.2606L17.6897 6.0346C18.0856 6.09822 18.2835 6.26079 18.2835 6.52232Z" fill="#FFCF0F" fill-opacity="0.75"/>
</g>
<defs>
<clipPath id="clip0_1049_250">
<rect width="17.6429" height="16.8265" fill="white" transform="matrix(1 0 0 -1 0.640625 16.8281)"/>
</clipPath>
</defs>
</svg>
