<svg width="29" height="29" viewBox="0 0 29 29" fill="none" xmlns="http://www.w3.org/2000/svg">
<g clip-path="url(#clip0_1021_10)">
<path d="M25.6813 21.7352C24.5507 23.8645 22.8673 25.6497 20.8082 26.9035C18.749 28.1572 16.3901 28.8331 13.9794 28.86C10.3238 28.7706 6.85261 27.2356 4.32656 24.5916C1.80052 21.9476 0.425607 18.41 0.503107 14.7541C0.441394 11.2584 1.70142 7.86819 4.03124 5.26132C6.36106 2.65446 9.589 1.02307 13.0697 0.693276C13.3213 0.680516 13.5719 0.73323 13.7971 0.846291C14.0221 0.959352 14.2141 1.12887 14.3541 1.33829C14.4905 1.55096 14.5671 1.79641 14.576 2.0489C14.585 2.30138 14.5259 2.55163 14.4048 2.77338C13.9701 3.56906 13.6299 4.41273 13.3908 5.28726C13.3429 5.46672 13.2601 5.63495 13.147 5.78225C13.0337 5.92956 12.8926 6.05303 12.7317 6.14555C12.5705 6.23808 12.3928 6.29785 12.2086 6.32141C12.0244 6.34496 11.8374 6.33185 11.6582 6.28281C11.479 6.23379 11.3113 6.14981 11.1648 6.0357C11.0182 5.9216 10.8957 5.77965 10.8042 5.61801C10.7128 5.45636 10.6542 5.27822 10.6319 5.09384C10.6095 4.90946 10.6239 4.72248 10.6741 4.54366C10.7262 4.35353 10.7825 4.16482 10.8417 3.98033C8.61716 4.76158 6.69428 6.22191 5.34459 8.15509C3.9949 10.0883 3.28662 12.3966 3.31977 14.7541C3.24203 17.663 4.32013 20.4844 6.318 22.6002C8.31589 24.7161 11.0708 25.9542 13.9794 26.0433C15.4725 26.0304 16.9454 25.6966 18.2984 25.065C19.6512 24.4332 20.8525 23.518 21.821 22.3817C18.9679 21.9704 16.3285 20.6346 14.3076 18.5792C14.0514 18.3131 13.9099 17.9572 13.9137 17.588C13.9173 17.2187 14.066 16.8656 14.3274 16.6048C14.589 16.3441 14.9425 16.1965 15.3117 16.1939C15.681 16.1912 16.0366 16.3336 16.3018 16.5906C17.3232 17.6412 18.5593 18.459 19.9258 18.9881C21.2922 19.5173 22.7569 19.7453 24.2194 19.6565C24.4804 19.6343 24.7426 19.6817 24.9794 19.7937C25.2161 19.9058 25.4189 20.0786 25.5672 20.2945C25.7147 20.502 25.8031 20.7455 25.8231 20.9991C25.8432 21.2527 25.7942 21.5071 25.6813 21.7352ZM26.5573 16.185V15.4808H27.2614C27.6349 15.4808 27.9932 15.3324 28.2573 15.0683C28.5215 14.8041 28.6698 14.446 28.6698 14.0725C28.6698 13.6989 28.5215 13.3407 28.2573 13.0767C27.9932 12.8125 27.6349 12.6642 27.2614 12.6642H26.5573V11.9599C26.5573 11.5864 26.409 11.2282 26.1448 10.9641C25.8807 10.7 25.5224 10.5516 25.1489 10.5516C24.7754 10.5516 24.4172 10.7 24.1531 10.9641C23.889 11.2282 23.7406 11.5864 23.7406 11.9599V12.6642H23.0364C22.6629 12.6642 22.3047 12.8125 22.0406 13.0767C21.7765 13.3407 21.6281 13.6989 21.6281 14.0725C21.6281 14.446 21.7765 14.8041 22.0406 15.0683C22.3047 15.3324 22.6629 15.4808 23.0364 15.4808H23.7406V16.185C23.7406 16.5585 23.889 16.9166 24.1531 17.1808C24.4172 17.4449 24.7754 17.5933 25.1489 17.5933C25.5224 17.5933 25.8807 17.4449 26.1448 17.1808C26.409 16.9166 26.5573 16.5585 26.5573 16.185ZM20.9239 0.693276C20.5504 0.693276 20.1922 0.841658 19.9281 1.10578C19.664 1.36988 19.5156 1.72811 19.5156 2.10161V2.80578H18.8114C18.4379 2.80578 18.0797 2.95416 17.8156 3.21828C17.5515 3.48238 17.4031 3.8406 17.4031 4.21411C17.4031 4.58763 17.5515 4.94584 17.8156 5.20996C18.0797 5.47407 18.4379 5.62244 18.8114 5.62244H19.5156V6.32661C19.5156 6.70013 19.664 7.05834 19.9281 7.32246C20.1922 7.58658 20.5504 7.73494 20.9239 7.73494C21.2974 7.73494 21.6557 7.58658 21.9198 7.32246C22.184 7.05834 22.3323 6.70013 22.3323 6.32661V5.62244H23.0364C23.4099 5.62244 23.7682 5.47407 24.0323 5.20996C24.2965 4.94584 24.4448 4.58763 24.4448 4.21411C24.4448 3.8406 24.2965 3.48238 24.0323 3.21828C23.7682 2.95416 23.4099 2.80578 23.0364 2.80578H22.3323V2.10161C22.3323 1.72811 22.184 1.36988 21.9198 1.10578C21.6557 0.841658 21.2974 0.693276 20.9239 0.693276ZM12.4739 14.7767C12.8474 14.7767 13.2057 14.6282 13.4698 14.3642C13.734 14.1 13.8823 13.7418 13.8823 13.3683V12.6642H14.5864C14.9599 12.6642 15.3182 12.5157 15.5823 12.2517C15.8465 11.9875 15.9948 11.6293 15.9948 11.2558C15.9948 10.8823 15.8465 10.524 15.5823 10.2599C15.3182 9.99582 14.9599 9.84744 14.5864 9.84744H13.8823V9.14328C13.8823 8.76977 13.734 8.41155 13.4698 8.14744C13.2057 7.88332 12.8474 7.73494 12.4739 7.73494C12.1004 7.73494 11.7422 7.88332 11.4781 8.14744C11.214 8.41155 11.0656 8.76977 11.0656 9.14328V9.84744H10.3614C9.98792 9.84744 9.62971 9.99582 9.36559 10.2599C9.10149 10.524 8.95311 10.8823 8.95311 11.2558C8.95311 11.6293 9.10149 11.9875 9.36559 12.2517C9.62971 12.5157 9.98792 12.6642 10.3614 12.6642H11.0656V13.3683C11.0656 13.7418 11.214 14.1 11.4781 14.3642C11.7422 14.6282 12.1004 14.7767 12.4739 14.7767Z" fill="white"/>
</g>
<defs>
<clipPath id="clip0_1021_10">
<rect width="28.1698" height="28.1686" fill="white" transform="translate(0.5 0.691406)"/>
</clipPath>
</defs>
</svg>
