<svg width="12" height="10" viewBox="0 0 12 10" fill="none" xmlns="http://www.w3.org/2000/svg">
<g clip-path="url(#clip0_1050_258)">
<path fill-rule="evenodd" clip-rule="evenodd" d="M10.1574 0.852746C10.2256 0.783113 10.3071 0.727794 10.397 0.690029C10.4868 0.652264 10.5834 0.632812 10.6809 0.632812C10.7784 0.632812 10.8749 0.652264 10.9648 0.690029C11.0547 0.727794 11.1361 0.783113 11.2044 0.852746C11.4904 1.14175 11.4944 1.60875 11.2144 1.90275L5.30137 8.89275C5.23423 8.96647 5.15276 9.02572 5.06194 9.06687C4.97113 9.10802 4.87286 9.13021 4.77317 9.13209C4.67348 9.13396 4.57446 9.11547 4.48216 9.07776C4.38986 9.04004 4.30622 8.9839 4.23637 8.91275L0.638367 5.26675C0.499604 5.12523 0.421875 4.93494 0.421875 4.73675C0.421875 4.53855 0.499604 4.34826 0.638367 4.20675C0.706613 4.13711 0.788065 4.08179 0.877955 4.04403C0.967845 4.00626 1.06437 3.98681 1.16187 3.98681C1.25937 3.98681 1.35589 4.00626 1.44578 4.04403C1.53567 4.08179 1.61712 4.13711 1.68537 4.20675L4.73737 7.29975L10.1374 0.874747C10.1436 0.867018 10.1503 0.859672 10.1574 0.852746Z" fill="black" fill-opacity="0.75"/>
</g>
<defs>
<clipPath id="clip0_1050_258">
<rect width="10.9998" height="8.4994" fill="white" transform="translate(0.421875 0.632812)"/>
</clipPath>
</defs>
</svg>
