<svg width="12" height="10" viewBox="0 0 12 10" fill="none" xmlns="http://www.w3.org/2000/svg">
<g clip-path="url(#clip0_687_120)">
<path fill-rule="evenodd" clip-rule="evenodd" d="M10.2667 1.16134C10.335 1.09171 10.4164 1.03639 10.5063 0.998623C10.5962 0.960858 10.6927 0.941406 10.7902 0.941406C10.8877 0.941406 10.9843 0.960858 11.0742 0.998623C11.164 1.03639 11.2455 1.09171 11.3137 1.16134C11.5997 1.45034 11.6037 1.91734 11.3237 2.21134L5.41074 9.20134C5.34361 9.27506 5.26214 9.33431 5.17132 9.37546C5.0805 9.41662 4.98224 9.43881 4.88255 9.44068C4.78286 9.44255 4.68383 9.42407 4.59153 9.38635C4.49923 9.34864 4.4156 9.29249 4.34574 9.22134L0.747742 5.57534C0.608979 5.43383 0.53125 5.24354 0.53125 5.04534C0.53125 4.84715 0.608979 4.65685 0.747742 4.51534C0.815988 4.44571 0.89744 4.39039 0.98733 4.35262C1.07722 4.31486 1.17374 4.29541 1.27124 4.29541C1.36874 4.29541 1.46526 4.31486 1.55515 4.35262C1.64504 4.39039 1.7265 4.44571 1.79474 4.51534L4.84674 7.60834L10.2467 1.18334C10.253 1.17561 10.2596 1.16827 10.2667 1.16134Z" fill="black" fill-opacity="0.75"/>
</g>
<defs>
<clipPath id="clip0_687_120">
<rect width="10.9998" height="8.4994" fill="white" transform="translate(0.53125 0.941406)"/>
</clipPath>
</defs>
</svg>
