<svg width="225" height="47" viewBox="0 0 225 47" fill="none" xmlns="http://www.w3.org/2000/svg">
<g clip-path="url(#clip0_754_73)">
<path d="M0.578125 6.08359H2.20564V4.05512C2.20564 2.85219 2.48865 1.9323 3.10191 1.27187C3.69158 0.611445 4.58788 0.28125 5.76722 0.28125C6.23896 0.28125 6.68711 0.35203 7.15884 0.469964V2.02669C6.92298 1.95593 6.71069 1.90874 6.522 1.88515C6.3333 1.86157 6.12102 1.83798 5.88515 1.83798C5.27189 1.83798 4.80018 2.02669 4.51714 2.40408C4.2341 2.78146 4.09257 3.25317 4.09257 3.84283V6.08359H6.6871V7.64031H4.09257V17.3817H2.20564V7.64031H0.578125V6.08359ZM19.302 17.3817H17.4387V15.8721H17.3915C16.9669 16.391 16.4244 16.8392 15.7404 17.2166C15.0328 17.5939 14.2073 17.7826 13.2638 17.7826C12.4854 17.7826 11.7542 17.6411 11.0466 17.3581C10.339 17.0751 9.72576 16.6741 9.20685 16.1316C8.66436 15.6127 8.23978 14.9758 7.93316 14.221C7.60294 13.4898 7.46141 12.6643 7.46141 11.7208C7.46141 10.8717 7.60296 10.0698 7.90959 9.315C8.19263 8.58381 8.61718 7.94696 9.15967 7.40446C9.67858 6.88555 10.3154 6.461 11.023 6.15437C11.7306 5.87133 12.5326 5.7062 13.3817 5.7062C13.9006 5.7062 14.3488 5.77698 14.7733 5.89491C15.1743 6.03643 15.5517 6.17796 15.8819 6.36666C16.2121 6.55535 16.4952 6.7676 16.7546 7.00346C16.9905 7.23933 17.2263 7.47523 17.415 7.7111H17.4387V6.08359H19.302V17.3817ZM9.39557 11.7208C9.39557 12.2869 9.46631 12.8294 9.63142 13.3483C9.79652 13.8672 10.056 14.339 10.4098 14.74C10.74 15.1645 11.1882 15.4947 11.7071 15.7542C12.226 16.0136 12.8156 16.1316 13.5232 16.1316C14.0422 16.1316 14.561 16.0372 15.0564 15.8249C15.5281 15.6127 15.9762 15.306 16.3536 14.9286C16.731 14.5512 17.0141 14.0795 17.2499 13.5606C17.4858 13.0417 17.6038 12.452 17.6038 11.7916C17.6038 11.1312 17.4858 10.5179 17.2735 9.97542C17.0612 9.43292 16.7782 8.96116 16.4008 8.56019C16.0234 8.1828 15.5988 7.8762 15.1271 7.66392C14.6318 7.45164 14.1129 7.33371 13.5704 7.33371C12.8628 7.33371 12.226 7.47523 11.7071 7.7111C11.1882 7.97055 10.74 8.30077 10.4098 8.72533C10.0795 9.1499 9.82009 9.62161 9.65498 10.1405C9.46629 10.6594 9.39557 11.2019 9.39557 11.7208ZM27.5203 8.79608C27.4259 8.37152 27.2137 7.99414 26.8834 7.7111C26.5532 7.42806 26.1522 7.28653 25.7041 7.28653C25.1144 7.28653 24.6663 7.45163 24.3597 7.73467C24.053 8.0413 23.9115 8.39511 23.9115 8.79608C23.9115 8.98478 23.9351 9.1499 23.9823 9.315C24.0294 9.48011 24.1474 9.64519 24.3361 9.78671C24.5012 9.95181 24.7371 10.117 25.0437 10.2821C25.3503 10.4472 25.7749 10.6122 26.2938 10.7538C26.907 10.966 27.4259 11.2019 27.8505 11.4614C28.2751 11.7209 28.6053 12.0039 28.8647 12.3105C29.1006 12.6171 29.2893 12.9473 29.4072 13.2775C29.5016 13.6313 29.5723 13.9852 29.5723 14.3626C29.5723 15.4004 29.2185 16.2495 28.5345 16.8627C27.8269 17.476 26.907 17.7826 25.7513 17.7826C25.1144 17.7826 24.5719 17.7119 24.1002 17.5232C23.6285 17.3581 23.2275 17.1222 22.8973 16.8156C22.5671 16.5089 22.284 16.1551 22.0953 15.7306C21.8831 15.306 21.7416 14.8579 21.6472 14.3626H23.5341C23.6285 14.8815 23.8644 15.306 24.2182 15.6598C24.572 16.0136 25.1145 16.1788 25.8221 16.1788C26.4353 16.1788 26.907 16.0372 27.2373 15.707C27.5439 15.3768 27.709 14.9758 27.709 14.5041C27.709 14.2682 27.6618 14.0559 27.6146 13.8436C27.5439 13.6549 27.426 13.4427 27.2373 13.254C27.0486 13.0653 26.7891 12.9002 26.4589 12.7351C26.1287 12.5699 25.7041 12.4049 25.1852 12.2162C24.1002 11.886 23.3219 11.4378 22.8265 10.8717C22.3076 10.3292 22.0718 9.6216 22.0718 8.77247C22.0718 8.3715 22.1425 7.99413 22.284 7.61674C22.4256 7.23935 22.6614 6.90912 22.968 6.62608C23.2511 6.34304 23.6285 6.13077 24.0766 5.96566C24.5012 5.80055 25.0201 5.7062 25.6098 5.7062C26.1759 5.7062 26.6948 5.80055 27.1193 5.96566C27.5439 6.13077 27.9213 6.34304 28.2279 6.62608C28.5345 6.90912 28.794 7.23935 28.9827 7.61674C29.1713 7.99413 29.3129 8.37152 29.4072 8.79608H27.5203ZM30.6526 6.08359H32.1386V2.47482H34.002V6.08359H37.0211V7.64031H34.002V13.6078C34.002 14.0795 34.0255 14.4569 34.0963 14.7635C34.167 15.0701 34.285 15.306 34.4265 15.4711C34.568 15.6598 34.7567 15.7777 34.9926 15.8485C35.2049 15.9193 35.4643 15.9429 35.771 15.9429C36.2191 15.9429 36.6672 15.8957 37.139 15.7542V17.2873C36.6672 17.4524 36.0776 17.5232 35.3935 17.5232C34.6859 17.5232 34.1435 17.4288 33.7189 17.2166C33.2943 17.0043 32.9641 16.7212 32.7283 16.3439C32.4924 15.9665 32.3273 15.5419 32.2565 15.0702C32.1622 14.5984 32.1386 14.0795 32.1386 13.537V7.64031H30.6526V6.08359ZM43.9158 5.7062C44.93 5.7062 45.8027 5.91848 46.5103 6.29587C47.2179 6.67326 47.8076 7.16859 48.2557 7.73467C48.6803 8.30075 49.0105 8.93758 49.1992 9.6216C49.3879 10.3292 49.5059 10.9661 49.5059 11.5793C49.5059 11.6973 49.4823 11.8152 49.4823 11.9567C49.4823 12.0982 49.4587 12.2162 49.4587 12.2633H40.2363C40.2363 12.7823 40.3306 13.2776 40.5665 13.7493C40.7788 14.221 41.0618 14.622 41.4392 14.9758C41.8166 15.3296 42.2411 15.6127 42.7129 15.8249C43.1846 16.0372 43.7035 16.1316 44.246 16.1316C44.9065 16.1316 45.4725 16.0136 45.9207 15.7778C46.3688 15.5419 46.7698 15.2117 47.1472 14.7635H49.2936C49.1049 15.1409 48.8454 15.4947 48.5624 15.8485C48.2793 16.2023 47.9255 16.5325 47.501 16.8156C47.0764 17.0986 46.6047 17.3345 46.0858 17.5232C45.5433 17.7119 44.9536 17.7826 44.2932 17.7826C43.3969 17.7826 42.5714 17.6411 41.8402 17.3109C41.0854 17.0043 40.4721 16.5797 39.9532 16.0136C39.4343 15.4475 39.0098 14.7871 38.7267 14.0324C38.4437 13.2776 38.3022 12.4756 38.3022 11.5793C38.3022 10.8245 38.4201 10.0697 38.7031 9.36214C38.9626 8.65454 39.3399 8.0177 39.8353 7.47521C40.307 6.9563 40.8967 6.53173 41.6043 6.20151C42.2883 5.8713 43.0667 5.7062 43.9158 5.7062ZM43.9158 7.33371C43.3733 7.33371 42.878 7.42805 42.4534 7.61674C42.0288 7.80544 41.6515 8.06489 41.3449 8.37152C41.0146 8.70173 40.7787 9.05552 40.59 9.4565C40.4013 9.88106 40.307 10.282 40.2598 10.7066H47.5481C47.501 10.282 47.3831 9.85749 47.1944 9.43293C47.0057 9.03195 46.7462 8.67814 46.4396 8.37152C46.1094 8.06489 45.7556 7.80544 45.331 7.61674C44.9064 7.42805 44.4347 7.33371 43.9158 7.33371ZM57.4755 7.49882C57.334 7.47523 57.1689 7.45162 57.0037 7.42803C56.8386 7.40444 56.6264 7.38085 56.3905 7.38085C55.966 7.38085 55.5885 7.47522 55.2347 7.61674C54.8809 7.75826 54.5743 7.99412 54.3149 8.32434C54.0554 8.65455 53.8431 9.05551 53.7016 9.57442C53.5601 10.0933 53.4893 10.683 53.4893 11.3906V17.3817H51.626V6.08359H53.4893V7.49882H53.5365C53.6309 7.31012 53.7488 7.12143 53.9375 6.90915C54.1262 6.69687 54.3384 6.50817 54.5979 6.31948C54.8573 6.15437 55.1404 6.01285 55.4706 5.89491C55.8008 5.77698 56.1546 5.7062 56.532 5.7062C56.8858 5.7062 57.1925 5.72981 57.4755 5.77699V7.49882ZM63.6505 6.08359H65.1365V2.47482H66.9998V6.08359H70.0189V7.64031H66.9998V13.6078C66.9998 14.0795 67.0234 14.4569 67.0942 14.7635C67.1649 15.0701 67.2829 15.306 67.4244 15.4711C67.5659 15.6598 67.7546 15.7777 67.9905 15.8485C68.2028 15.9193 68.4622 15.9429 68.7688 15.9429C69.217 15.9429 69.6652 15.8957 70.1369 15.7542V17.2873C69.6652 17.4524 69.0755 17.5232 68.3914 17.5232C67.6838 17.5232 67.1414 17.4288 66.7168 17.2166C66.2922 17.0043 65.962 16.7212 65.7261 16.3439C65.4903 15.9665 65.3252 15.5419 65.2544 15.0702C65.1601 14.5984 65.1365 14.0795 65.1365 13.537V7.64031H63.6505V6.08359ZM83.1406 17.3817H81.2772V15.8721H81.2301C80.8055 16.391 80.263 16.8392 79.579 17.2166C78.8714 17.5939 78.0459 17.7826 77.1024 17.7826C76.324 17.7826 75.5928 17.6411 74.8852 17.3581C74.1776 17.0751 73.5644 16.6741 73.0455 16.1316C72.503 15.6127 72.0784 14.9758 71.7718 14.221C71.4416 13.4898 71.3 12.6643 71.3 11.7208C71.3 10.8717 71.4416 10.0698 71.7482 9.315C72.0312 8.58381 72.4558 7.94696 72.9983 7.40446C73.5172 6.88555 74.154 6.461 74.8616 6.15437C75.5693 5.87133 76.3712 5.7062 77.2203 5.7062C77.7392 5.7062 78.1874 5.77698 78.6119 5.89491C79.0129 6.03643 79.3903 6.17796 79.7205 6.36666C80.0507 6.55535 80.3338 6.7676 80.5932 7.00346C80.8291 7.23933 81.065 7.47523 81.2537 7.7111H81.2772V6.08359H83.1406V17.3817ZM73.2341 11.7208C73.2341 12.2869 73.3049 12.8294 73.47 13.3483C73.6351 13.8672 73.8946 14.339 74.2484 14.74C74.5786 15.1645 75.0268 15.4947 75.5457 15.7542C76.0646 16.0136 76.6542 16.1316 77.3618 16.1316C77.8807 16.1316 78.3997 16.0372 78.895 15.8249C79.3667 15.6127 79.8148 15.306 80.1922 14.9286C80.5696 14.5512 80.8527 14.0795 81.0885 13.5606C81.3244 13.0417 81.4424 12.452 81.4424 11.7916C81.4424 11.1312 81.3244 10.5179 81.1121 9.97542C80.8998 9.43292 80.6168 8.96116 80.2394 8.56019C79.862 8.1828 79.4375 7.8762 78.9657 7.66392C78.4704 7.45164 77.9515 7.33371 77.409 7.33371C76.7014 7.33371 76.0646 7.47523 75.5457 7.7111C75.0268 7.97055 74.5786 8.30077 74.2484 8.72533C73.9182 9.1499 73.6587 9.62161 73.4936 10.1405C73.3049 10.6594 73.2341 11.2019 73.2341 11.7208ZM91.3582 8.79608C91.2639 8.37152 91.0516 7.99414 90.7214 7.7111C90.3912 7.42806 89.9902 7.28653 89.5421 7.28653C88.9524 7.28653 88.5042 7.45163 88.1976 7.73467C87.891 8.0413 87.7494 8.39511 87.7494 8.79608C87.7494 8.98478 87.773 9.1499 87.8202 9.315C87.8674 9.48011 87.9853 9.64519 88.174 9.78671C88.3391 9.95181 88.575 10.117 88.8816 10.2821C89.1883 10.4472 89.6128 10.6122 90.1317 10.7538C90.745 10.966 91.2639 11.2019 91.6884 11.4614C92.113 11.7209 92.4432 12.0039 92.7027 12.3105C92.9385 12.6171 93.1272 12.9473 93.2452 13.2775C93.3395 13.6313 93.4103 13.9852 93.4103 14.3626C93.4103 15.4004 93.0565 16.2495 92.3725 16.8627C91.6649 17.476 90.745 17.7826 89.5892 17.7826C88.9524 17.7826 88.4099 17.7119 87.9381 17.5232C87.4664 17.3581 87.0655 17.1222 86.7352 16.8156C86.405 16.5089 86.122 16.1551 85.9333 15.7306C85.721 15.306 85.5795 14.8579 85.4851 14.3626H87.372C87.4664 14.8815 87.7023 15.306 88.0561 15.6598C88.4099 16.0136 88.9524 16.1788 89.66 16.1788C90.2732 16.1788 90.7449 16.0372 91.0752 15.707C91.3818 15.3768 91.5469 14.9758 91.5469 14.5041C91.5469 14.2682 91.4998 14.0559 91.4526 13.8436C91.3818 13.6549 91.2639 13.4427 91.0752 13.254C90.8865 13.0653 90.627 12.9002 90.2968 12.7351C89.9666 12.5699 89.542 12.4049 89.0231 12.2162C87.9381 11.886 87.1598 11.4378 86.6645 10.8717C86.1455 10.3292 85.9097 9.6216 85.9097 8.77247C85.9097 8.3715 85.9804 7.99413 86.122 7.61674C86.2635 7.23935 86.4994 6.90912 86.806 6.62608C87.089 6.34304 87.4664 6.13077 87.9146 5.96566C88.3391 5.80055 88.858 5.7062 89.4477 5.7062C90.0138 5.7062 90.5327 5.80055 90.9572 5.96566C91.3818 6.13077 91.7592 6.34304 92.0658 6.62608C92.3725 6.90912 92.6319 7.23935 92.8206 7.61674C93.0093 7.99413 93.1508 8.37152 93.2452 8.79608H91.3582ZM98.6661 12.0039L97.5811 13.0653V17.3817H95.7177V0.399176H97.5811V10.8481L102.298 6.08359H104.61L99.9634 10.7066L105.412 17.3817H103.077L98.6661 12.0039ZM117.151 5.7062C117.953 5.7062 118.637 5.82413 119.251 6.03641C119.84 6.27227 120.336 6.53175 120.76 6.86197C121.185 7.19218 121.515 7.54599 121.751 7.92338C121.987 8.30077 122.152 8.65454 122.246 8.98475H120.17C119.935 8.51302 119.581 8.13563 119.085 7.80542C118.59 7.49879 117.953 7.33371 117.151 7.33371C116.609 7.33371 116.09 7.42805 115.618 7.61674C115.123 7.80544 114.698 8.06487 114.345 8.44226C113.967 8.81965 113.684 9.26782 113.472 9.81032C113.236 10.3764 113.142 11.0132 113.142 11.7208C113.142 12.3812 113.236 12.9709 113.448 13.4898C113.637 14.0323 113.92 14.5041 114.297 14.8814C114.675 15.2824 115.099 15.5891 115.618 15.8014C116.114 16.0372 116.656 16.1316 117.269 16.1316C118.142 16.1316 118.826 15.9429 119.298 15.5655C119.77 15.1881 120.1 14.7399 120.336 14.2682H122.411C122.27 14.6928 122.057 15.1173 121.774 15.5419C121.491 15.9665 121.161 16.3202 120.737 16.6505C120.312 16.9807 119.817 17.2637 119.251 17.476C118.685 17.6883 118.001 17.7826 117.246 17.7826C116.349 17.7826 115.547 17.6411 114.816 17.3345C114.085 17.0514 113.448 16.6269 112.906 16.0844C112.363 15.5655 111.939 14.9286 111.656 14.1739C111.349 13.4191 111.208 12.5935 111.208 11.6972C111.208 10.8953 111.325 10.1169 111.608 9.38575C111.892 8.65456 112.292 8.0177 112.811 7.47521C113.33 6.93271 113.944 6.50816 114.675 6.17794C115.406 5.87132 116.231 5.7062 117.151 5.7062ZM123.661 11.7208C123.661 10.8717 123.802 10.0698 124.109 9.315C124.415 8.58381 124.84 7.94696 125.382 7.40446C125.925 6.88555 126.562 6.461 127.317 6.15437C128.048 5.87133 128.85 5.7062 129.699 5.7062C130.572 5.7062 131.374 5.87132 132.128 6.17794C132.859 6.48457 133.496 6.90912 134.039 7.42803C134.558 7.97052 134.982 8.60738 135.289 9.33857C135.572 10.0933 135.737 10.8717 135.737 11.7208C135.737 12.5699 135.572 13.3483 135.289 14.0795C134.982 14.8107 134.558 15.4475 134.015 15.99C133.473 16.5561 132.836 16.9807 132.105 17.3109C131.35 17.6411 130.548 17.7826 129.699 17.7826C128.85 17.7826 128.048 17.6411 127.317 17.3109C126.562 17.0043 125.925 16.5797 125.382 16.0372C124.84 15.4947 124.415 14.8579 124.109 14.1031C123.802 13.3719 123.661 12.5699 123.661 11.7208ZM125.595 11.7208C125.595 12.3812 125.689 12.9709 125.925 13.4898C126.137 14.0087 126.444 14.4805 126.821 14.8579C127.199 15.2589 127.623 15.5655 128.119 15.7778C128.614 15.99 129.133 16.0844 129.699 16.0844C130.289 16.0844 130.831 15.9901 131.35 15.7542C131.845 15.5419 132.27 15.2352 132.647 14.8343C133.001 14.4569 133.284 13.9852 133.496 13.4427C133.685 12.9238 133.803 12.3341 133.803 11.7208C133.803 11.1311 133.685 10.5651 133.496 10.0462C133.308 9.52726 133.025 9.05552 132.671 8.65455C132.317 8.27716 131.892 7.97054 131.374 7.73467C130.855 7.4988 130.312 7.38085 129.699 7.38085C129.086 7.38085 128.543 7.49882 128.048 7.7111C127.529 7.94697 127.104 8.25359 126.751 8.63098C126.373 9.00837 126.09 9.48008 125.901 9.99899C125.689 10.5179 125.595 11.1076 125.595 11.7208ZM137.859 6.08359H139.723V7.49882H139.77C140.147 7.00349 140.619 6.57892 141.185 6.22512C141.751 5.89491 142.388 5.7062 143.143 5.7062C144.039 5.7062 144.817 5.94208 145.478 6.39023C146.138 6.83837 146.586 7.38088 146.822 8.04131C146.964 7.75827 147.152 7.49879 147.388 7.21575C147.624 6.9327 147.907 6.69684 148.237 6.46097C148.568 6.2251 148.921 6.06 149.346 5.91848C149.771 5.77696 150.219 5.7062 150.714 5.7062C151.988 5.7062 153.025 6.15434 153.827 7.00346C154.629 7.87617 155.03 9.14987 155.03 10.8009V17.3817H153.167V10.6594C153.167 10.2349 153.096 9.81029 153.002 9.40932C152.908 9.03193 152.742 8.67814 152.53 8.37152C152.294 8.08847 152.011 7.85262 151.681 7.66392C151.327 7.47523 150.926 7.38085 150.455 7.38085C150.054 7.38085 149.676 7.45161 149.299 7.59313C148.921 7.73465 148.615 7.97053 148.332 8.27716C148.049 8.58379 147.813 8.96119 147.648 9.43293C147.459 9.90466 147.388 10.4707 147.388 11.1076V17.3817H145.501V10.6594C145.501 10.1877 145.431 9.76312 145.313 9.36214C145.171 8.98475 145.006 8.63097 144.77 8.32434C144.534 8.0413 144.275 7.80542 143.945 7.64031C143.614 7.4752 143.237 7.38085 142.812 7.38085C141.869 7.38085 141.114 7.71109 140.548 8.37152C139.982 9.03195 139.723 9.92824 139.723 11.1076V17.3817H137.859V6.08359ZM157.799 6.08359H159.662V7.68749H159.709C159.898 7.47521 160.11 7.23933 160.37 7.00346C160.606 6.7676 160.912 6.55535 161.242 6.36666C161.573 6.17796 161.974 6.03643 162.422 5.89491C162.87 5.77698 163.389 5.7062 163.955 5.7062C164.851 5.7062 165.653 5.89491 166.361 6.22512C167.068 6.55534 167.658 7.00348 168.153 7.56956C168.625 8.13565 169.003 8.7725 169.262 9.48011C169.498 10.2113 169.639 10.966 169.639 11.7208C169.639 12.5699 169.474 13.3719 169.191 14.1031C168.908 14.8579 168.507 15.4947 167.988 16.0372C167.469 16.5797 166.88 17.0043 166.172 17.3109C165.465 17.6411 164.686 17.7826 163.884 17.7826C162.894 17.7826 162.068 17.5939 161.36 17.2166C160.653 16.8392 160.11 16.391 159.709 15.8721H159.662V22.9245H157.799V6.08359ZM167.705 11.7208C167.705 11.1783 167.611 10.6358 167.446 10.1169C167.257 9.59801 166.998 9.12629 166.667 8.70172C166.314 8.30075 165.889 7.97055 165.37 7.7111C164.851 7.47523 164.238 7.33371 163.554 7.33371C162.988 7.33371 162.445 7.45164 161.95 7.66392C161.455 7.8762 161.03 8.1828 160.676 8.56019C160.299 8.96116 160.016 9.43292 159.804 9.97542C159.591 10.5179 159.497 11.1312 159.497 11.7916C159.497 12.452 159.591 13.0417 159.827 13.5606C160.04 14.1031 160.346 14.5512 160.724 14.9286C161.101 15.306 161.525 15.6127 162.021 15.8249C162.516 16.0372 163.035 16.1316 163.601 16.1316C164.262 16.1316 164.875 16.0136 165.394 15.7542C165.913 15.4947 166.337 15.1645 166.667 14.74C166.998 14.339 167.257 13.8672 167.446 13.3483C167.611 12.8294 167.705 12.2869 167.705 11.7208ZM171.772 0.399176H173.636V17.3817H171.772V0.399176ZM181.367 5.7062C182.381 5.7062 183.254 5.91848 183.961 6.29587C184.669 6.67326 185.259 7.16859 185.707 7.73467C186.131 8.30075 186.461 8.93758 186.65 9.6216C186.839 10.3292 186.957 10.9661 186.957 11.5793C186.957 11.6973 186.933 11.8152 186.933 11.9567C186.933 12.0982 186.91 12.2162 186.91 12.2633H177.687C177.687 12.7823 177.782 13.2776 178.017 13.7493C178.23 14.221 178.513 14.622 178.89 14.9758C179.267 15.3296 179.692 15.6127 180.164 15.8249C180.635 16.0372 181.154 16.1316 181.697 16.1316C182.357 16.1316 182.923 16.0136 183.372 15.7778C183.82 15.5419 184.221 15.2117 184.598 14.7635H186.744C186.556 15.1409 186.296 15.4947 186.013 15.8485C185.73 16.2023 185.376 16.5325 184.952 16.8156C184.527 17.0986 184.056 17.3345 183.537 17.5232C182.994 17.7119 182.405 17.7826 181.744 17.7826C180.848 17.7826 180.022 17.6411 179.291 17.3109C178.536 17.0043 177.923 16.5797 177.404 16.0136C176.885 15.4475 176.461 14.7871 176.178 14.0324C175.895 13.2776 175.753 12.4756 175.753 11.5793C175.753 10.8245 175.871 10.0697 176.154 9.36214C176.413 8.65454 176.791 8.0177 177.286 7.47521C177.758 6.9563 178.348 6.53173 179.055 6.20151C179.739 5.8713 180.518 5.7062 181.367 5.7062ZM181.367 7.33371C180.824 7.33371 180.329 7.42805 179.904 7.61674C179.48 7.80544 179.102 8.06489 178.796 8.37152C178.466 8.70173 178.23 9.05552 178.041 9.4565C177.852 9.88106 177.758 10.282 177.711 10.7066H184.999C184.952 10.282 184.834 9.85749 184.645 9.43293C184.457 9.03195 184.197 8.67814 183.89 8.37152C183.56 8.06489 183.206 7.80544 182.782 7.61674C182.357 7.42805 181.886 7.33371 181.367 7.33371ZM187.85 6.08359H189.336V2.47482H191.2V6.08359H194.219V7.64031H191.2V13.6078C191.2 14.0795 191.223 14.4569 191.294 14.7635C191.365 15.0701 191.483 15.306 191.624 15.4711C191.766 15.6598 191.954 15.7777 192.19 15.8485C192.403 15.9193 192.662 15.9429 192.969 15.9429C193.417 15.9429 193.865 15.8957 194.337 15.7542V17.2873C193.865 17.4524 193.275 17.5232 192.591 17.5232C191.884 17.5232 191.341 17.4288 190.917 17.2166C190.492 17.0043 190.162 16.7212 189.926 16.3439C189.69 15.9665 189.525 15.5419 189.454 15.0702C189.36 14.5984 189.336 14.0795 189.336 13.537V7.64031H187.85V6.08359ZM196.278 6.08359H198.142V17.3817H196.278V6.08359ZM196.066 1.17756H198.377V3.37113H196.066V1.17756ZM200.26 11.7208C200.26 10.8717 200.401 10.0698 200.708 9.315C201.014 8.58381 201.439 7.94696 201.982 7.40446C202.524 6.88555 203.161 6.461 203.916 6.15437C204.647 5.87133 205.449 5.7062 206.298 5.7062C207.171 5.7062 207.973 5.87132 208.727 6.17794C209.459 6.48457 210.095 6.90912 210.638 7.42803C211.157 7.97052 211.581 8.60738 211.888 9.33857C212.171 10.0933 212.336 10.8717 212.336 11.7208C212.336 12.5699 212.171 13.3483 211.888 14.0795C211.581 14.8107 211.157 15.4475 210.614 15.99C210.072 16.5561 209.435 16.9807 208.704 17.3109C207.949 17.6411 207.147 17.7826 206.298 17.7826C205.449 17.7826 204.647 17.6411 203.916 17.3109C203.161 17.0043 202.524 16.5797 201.982 16.0372C201.439 15.4947 201.014 14.8579 200.708 14.1031C200.401 13.3719 200.26 12.5699 200.26 11.7208ZM202.194 11.7208C202.194 12.3812 202.288 12.9709 202.524 13.4898C202.736 14.0087 203.043 14.4805 203.42 14.8579C203.798 15.2589 204.222 15.5655 204.718 15.7778C205.213 15.99 205.732 16.0844 206.298 16.0844C206.888 16.0844 207.43 15.9901 207.949 15.7542C208.444 15.5419 208.869 15.2352 209.246 14.8343C209.6 14.4569 209.883 13.9852 210.095 13.4427C210.284 12.9238 210.402 12.3341 210.402 11.7208C210.402 11.1311 210.284 10.5651 210.095 10.0462C209.907 9.52726 209.624 9.05552 209.27 8.65455C208.916 8.27716 208.491 7.97054 207.973 7.73467C207.454 7.4988 206.911 7.38085 206.298 7.38085C205.685 7.38085 205.142 7.49882 204.647 7.7111C204.128 7.94697 203.703 8.25359 203.35 8.63098C202.972 9.00837 202.689 9.48008 202.5 9.99899C202.288 10.5179 202.194 11.1076 202.194 11.7208ZM214.458 6.08359H216.322V7.49882H216.369C216.888 6.83839 217.454 6.36665 218.067 6.1072C218.68 5.84774 219.317 5.7062 219.93 5.7062C220.449 5.7062 220.968 5.80055 221.487 5.96566C222.006 6.15435 222.501 6.43738 222.926 6.83836C223.35 7.23933 223.681 7.75824 223.964 8.39508C224.247 9.05551 224.388 9.85747 224.388 10.8009V17.3817H222.525V10.9189C222.525 9.7867 222.265 8.91403 221.747 8.30077C221.228 7.68751 220.544 7.38085 219.647 7.38085C218.61 7.38085 217.808 7.73465 217.218 8.39508C216.605 9.05551 216.322 10.0462 216.322 11.367V17.3817H214.458V6.08359ZM44.2804 35.0616H45.9079V33.0331C45.9079 31.8302 46.1909 30.9103 46.8041 30.2499C47.3938 29.5895 48.2901 29.2593 49.4695 29.2593C49.9412 29.2593 50.3894 29.3301 50.8611 29.448V31.0047C50.6252 30.934 50.4129 30.8868 50.2242 30.8632C50.0355 30.8396 49.8233 30.816 49.5874 30.816C48.9741 30.816 48.5024 31.0047 48.2194 31.3821C47.9363 31.7595 47.7948 32.2312 47.7948 32.8209V35.0616H50.3893V36.6183H47.7948V46.3597H45.9079V36.6183H44.2804V35.0616ZM57.7916 36.4768C57.65 36.4533 57.4849 36.4296 57.3198 36.4061C57.1547 36.3825 56.9424 36.3589 56.7066 36.3589C56.282 36.3589 55.9046 36.4533 55.5508 36.5948C55.197 36.7363 54.8904 36.9722 54.6309 37.3024C54.3715 37.6326 54.1592 38.0335 54.0177 38.5525C53.8762 39.0714 53.8054 39.661 53.8054 40.3686V46.3597H51.942V35.0616H53.8054V36.4768H53.8526C53.9469 36.2882 54.0648 36.0995 54.2535 35.8872C54.4422 35.6749 54.6545 35.4862 54.914 35.2975C55.1734 35.1324 55.4565 34.9909 55.7867 34.8729C56.1169 34.755 56.4707 34.6842 56.8481 34.6842C57.2019 34.6842 57.5085 34.7078 57.7916 34.755V36.4768ZM58.8718 40.6989C58.8718 39.8497 59.0134 39.0478 59.32 38.293C59.6266 37.5618 60.0512 36.925 60.5937 36.3825C61.1362 35.8636 61.773 35.439 62.5278 35.1324C63.259 34.8494 64.0609 34.6842 64.91 34.6842C65.7827 34.6842 66.5847 34.8493 67.3395 35.156C68.0707 35.4626 68.7075 35.8872 69.25 36.4061C69.7689 36.9486 70.1935 37.5854 70.5001 38.3166C70.7832 39.0714 70.9483 39.8497 70.9483 40.6989C70.9483 41.548 70.7832 42.3263 70.5001 43.0575C70.1935 43.7887 69.7689 44.4256 69.2264 44.9681C68.6839 45.5342 68.0471 45.9587 67.3159 46.2889C66.5611 46.6192 65.7592 46.7606 64.91 46.7606C64.0609 46.7606 63.259 46.6192 62.5278 46.2889C61.773 45.9823 61.1362 45.5577 60.5937 45.0153C60.0512 44.4728 59.6266 43.8359 59.32 43.0811C59.0134 42.3499 58.8718 41.548 58.8718 40.6989ZM60.806 40.6989C60.806 41.3593 60.9003 41.949 61.1362 42.4679C61.3484 42.9868 61.6551 43.4585 62.0325 43.8359C62.4099 44.2369 62.8344 44.5435 63.3297 44.7558C63.8251 44.9681 64.3439 45.0624 64.91 45.0624C65.4997 45.0624 66.0422 44.9681 66.5611 44.7322C67.0564 44.5199 67.481 44.2133 67.8584 43.8123C68.2122 43.4349 68.4952 42.9632 68.7075 42.4207C68.8962 41.9018 69.0142 41.3121 69.0142 40.6989C69.0142 40.1092 68.8962 39.5431 68.7075 39.0242C68.5188 38.5053 68.2358 38.0336 67.882 37.6326C67.5282 37.2552 67.1036 36.9486 66.5847 36.7127C66.0658 36.4768 65.5233 36.3589 64.91 36.3589C64.2968 36.3589 63.7543 36.4769 63.2589 36.6891C62.74 36.925 62.3155 37.2316 61.9617 37.609C61.5843 37.9864 61.3013 38.4581 61.1126 38.977C60.9003 39.4959 60.806 40.0856 60.806 40.6989ZM73.0704 35.0616H74.9338V36.4768H74.9809C75.3583 35.9815 75.83 35.557 76.3961 35.2032C76.9622 34.8729 77.5991 34.6842 78.3538 34.6842C79.2501 34.6842 80.0285 34.9201 80.6889 35.3683C81.3493 35.8164 81.7975 36.3589 82.0334 37.0193C82.1749 36.7363 82.3636 36.4768 82.5994 36.1938C82.8353 35.9107 83.1184 35.6749 83.4486 35.439C83.7788 35.2031 84.1326 35.038 84.5571 34.8965C84.9817 34.755 85.4299 34.6842 85.9252 34.6842C87.1989 34.6842 88.2367 35.1324 89.0386 35.9815C89.8406 36.8542 90.2415 38.1279 90.2415 39.779V46.3597H88.3782V39.6375C88.3782 39.2129 88.3075 38.7883 88.2131 38.3874C88.1188 38.01 87.9537 37.6562 87.7414 37.3495C87.5055 37.0665 87.2225 36.8307 86.8922 36.642C86.5384 36.4533 86.1375 36.3589 85.6657 36.3589C85.2647 36.3589 84.8874 36.4296 84.51 36.5712C84.1326 36.7127 83.826 36.9486 83.5429 37.2552C83.2599 37.5618 83.024 37.9392 82.8589 38.411C82.6702 38.8827 82.5994 39.4488 82.5994 40.0856V46.3597H80.7125V39.6375C80.7125 39.1657 80.6417 38.7411 80.5238 38.3402C80.3823 37.9628 80.2172 37.609 79.9813 37.3024C79.7454 37.0193 79.486 36.7835 79.1558 36.6183C78.8256 36.4532 78.4482 36.3589 78.0236 36.3589C77.0802 36.3589 76.3254 36.6891 75.7593 37.3495C75.1932 38.01 74.9338 38.9063 74.9338 40.0856V46.3597H73.0704V35.0616ZM103.859 37.7741C103.765 37.3496 103.553 36.9722 103.222 36.6891C102.892 36.4061 102.491 36.2646 102.043 36.2646C101.453 36.2646 101.005 36.4297 100.699 36.7127C100.392 37.0193 100.25 37.3731 100.25 37.7741C100.25 37.9628 100.274 38.1279 100.321 38.293C100.368 38.4581 100.486 38.6232 100.675 38.7647C100.84 38.9298 101.076 39.095 101.383 39.2601C101.689 39.4252 102.114 39.5903 102.633 39.7318C103.246 39.9441 103.765 40.18 104.189 40.4394C104.614 40.6989 104.944 40.9819 105.204 41.2885C105.44 41.5951 105.628 41.9254 105.746 42.2556C105.84 42.6094 105.911 42.9632 105.911 43.3406C105.911 44.3784 105.557 45.2275 104.873 45.8408C104.166 46.454 103.246 46.7606 102.09 46.7606C101.453 46.7606 100.911 46.6899 100.439 46.5012C99.9674 46.3361 99.5664 46.1002 99.2362 45.7936C98.906 45.487 98.623 45.1332 98.4343 44.7086C98.222 44.284 98.0804 43.8359 97.9861 43.3406H99.8731C99.9674 43.8595 100.203 44.2841 100.557 44.6379C100.911 44.9917 101.453 45.1568 102.161 45.1568C102.774 45.1568 103.246 45.0153 103.576 44.685C103.883 44.3548 104.048 43.9538 104.048 43.4821C104.048 43.2462 104.001 43.034 103.954 42.8217C103.883 42.633 103.765 42.4207 103.576 42.232C103.387 42.0433 103.128 41.8782 102.798 41.7131C102.468 41.548 102.043 41.3829 101.524 41.1942C100.439 40.864 99.6608 40.4158 99.1654 39.8498C98.6465 39.3073 98.4107 38.5996 98.4107 37.7505C98.4107 37.3495 98.4814 36.9722 98.6229 36.5948C98.7645 36.2174 99.0003 35.8871 99.307 35.6041C99.59 35.3211 99.9674 35.1088 100.416 34.9437C100.84 34.7786 101.359 34.6842 101.949 34.6842C102.515 34.6842 103.034 34.7786 103.458 34.9437C103.883 35.1088 104.26 35.3211 104.567 35.6041C104.873 35.8871 105.133 36.2174 105.322 36.5948C105.51 36.9722 105.652 37.3496 105.746 37.7741H103.859ZM106.992 35.0616H108.478V31.4529H110.342V35.0616H113.361V36.6183H110.342V42.5858C110.342 43.0576 110.365 43.4349 110.436 43.7416C110.507 44.0482 110.625 44.284 110.766 44.4492C110.908 44.6378 111.096 44.7558 111.332 44.8265C111.544 44.8973 111.804 44.9209 112.111 44.9209C112.559 44.9209 113.007 44.8737 113.479 44.7322V46.2653C113.007 46.4304 112.417 46.5012 111.733 46.5012C111.026 46.5012 110.483 46.4069 110.058 46.1946C109.634 45.9823 109.304 45.6993 109.068 45.3219C108.832 44.9445 108.667 44.5199 108.596 44.0482C108.502 43.5765 108.478 43.0575 108.478 42.515V36.6183H106.992V35.0616ZM126.482 46.3597H124.619V44.8501H124.572C124.147 45.3691 123.605 45.8172 122.921 46.1946C122.213 46.572 121.388 46.7606 120.444 46.7606C119.666 46.7606 118.935 46.6192 118.227 46.3361C117.519 46.0531 116.906 45.6521 116.387 45.1096C115.845 44.5907 115.42 43.9538 115.113 43.1991C114.783 42.4679 114.642 41.6423 114.642 40.6989C114.642 39.8497 114.783 39.0478 115.09 38.293C115.373 37.5618 115.798 36.925 116.34 36.3825C116.859 35.8636 117.496 35.439 118.203 35.1324C118.911 34.8494 119.713 34.6842 120.562 34.6842C121.081 34.6842 121.529 34.755 121.954 34.8729C122.355 35.0145 122.732 35.156 123.062 35.3447C123.392 35.5334 123.675 35.7456 123.935 35.9815C124.171 36.2174 124.407 36.4533 124.595 36.6891H124.619V35.0616H126.482V46.3597ZM116.576 40.6989C116.576 41.2649 116.647 41.8075 116.812 42.3264C116.977 42.8453 117.236 43.317 117.59 43.718C117.92 44.1425 118.368 44.4728 118.887 44.7322C119.406 44.9917 119.996 45.1096 120.704 45.1096C121.222 45.1096 121.741 45.0152 122.237 44.803C122.708 44.5907 123.157 44.284 123.534 43.9067C123.911 43.5293 124.194 43.0576 124.43 42.5386C124.666 42.0197 124.784 41.4301 124.784 40.7696C124.784 40.1092 124.666 39.4959 124.454 38.9535C124.242 38.411 123.959 37.9392 123.581 37.5382C123.204 37.1608 122.779 36.8542 122.307 36.642C121.812 36.4297 121.293 36.3117 120.751 36.3117C120.043 36.3117 119.406 36.4533 118.887 36.6891C118.368 36.9486 117.92 37.2788 117.59 37.7034C117.26 38.1279 117 38.5996 116.835 39.1186C116.647 39.6375 116.576 40.1799 116.576 40.6989ZM135.242 36.4768C135.101 36.4533 134.936 36.4296 134.771 36.4061C134.606 36.3825 134.393 36.3589 134.157 36.3589C133.733 36.3589 133.355 36.4533 133.002 36.5948C132.648 36.7363 132.341 36.9722 132.082 37.3024C131.822 37.6326 131.61 38.0335 131.469 38.5525C131.327 39.0714 131.256 39.661 131.256 40.3686V46.3597H129.393V35.0616H131.256V36.4768H131.303C131.398 36.2882 131.516 36.0995 131.704 35.8872C131.893 35.6749 132.105 35.4862 132.365 35.2975C132.624 35.1324 132.907 34.9909 133.238 34.8729C133.568 34.755 133.922 34.6842 134.299 34.6842C134.653 34.6842 134.959 34.7078 135.242 34.755V36.4768ZM135.875 35.0616H137.361V31.4529H139.224V35.0616H142.243V36.6183H139.224V42.5858C139.224 43.0576 139.247 43.4349 139.318 43.7416C139.389 44.0482 139.507 44.284 139.648 44.4492C139.79 44.6378 139.979 44.7558 140.215 44.8265C140.427 44.8973 140.686 44.9209 140.993 44.9209C141.441 44.9209 141.889 44.8737 142.361 44.7322V46.2653C141.889 46.4304 141.299 46.5012 140.615 46.5012C139.908 46.5012 139.365 46.4069 138.941 46.1946C138.516 45.9823 138.186 45.6993 137.95 45.3219C137.714 44.9445 137.549 44.5199 137.478 44.0482C137.384 43.5765 137.361 43.0575 137.361 42.515V36.6183H135.875V35.0616ZM148.619 35.0616H150.105V31.4529H151.968V35.0616H154.987V36.6183H151.968V42.5858C151.968 43.0576 151.992 43.4349 152.062 43.7416C152.133 44.0482 152.251 44.284 152.393 44.4492C152.534 44.6378 152.723 44.7558 152.959 44.8265C153.171 44.8973 153.431 44.9209 153.737 44.9209C154.185 44.9209 154.633 44.8737 155.105 44.7322V46.2653C154.633 46.4304 154.044 46.5012 153.36 46.5012C152.652 46.5012 152.11 46.4069 151.685 46.1946C151.261 45.9823 150.93 45.6993 150.694 45.3219C150.459 44.9445 150.293 44.5199 150.223 44.0482C150.128 43.5765 150.105 43.0575 150.105 42.515V36.6183H148.619V35.0616ZM156.268 40.6989C156.268 39.8497 156.41 39.0478 156.717 38.293C157.023 37.5618 157.448 36.925 157.99 36.3825C158.533 35.8636 159.17 35.439 159.924 35.1324C160.655 34.8494 161.457 34.6842 162.307 34.6842C163.179 34.6842 163.981 34.8493 164.736 35.156C165.467 35.4626 166.104 35.8872 166.647 36.4061C167.165 36.9486 167.59 37.5854 167.897 38.3166C168.18 39.0714 168.345 39.8497 168.345 40.6989C168.345 41.548 168.18 42.3263 167.897 43.0575C167.59 43.7887 167.165 44.4256 166.623 44.9681C166.08 45.5342 165.444 45.9587 164.712 46.2889C163.958 46.6192 163.156 46.7606 162.307 46.7606C161.457 46.7606 160.655 46.6192 159.924 46.2889C159.17 45.9823 158.533 45.5577 157.99 45.0153C157.448 44.4728 157.023 43.8359 156.717 43.0811C156.41 42.3499 156.268 41.548 156.268 40.6989ZM158.202 40.6989C158.202 41.3593 158.297 41.949 158.533 42.4679C158.745 42.9868 159.052 43.4585 159.429 43.8359C159.806 44.2369 160.231 44.5435 160.726 44.7558C161.222 44.9681 161.74 45.0624 162.307 45.0624C162.896 45.0624 163.439 44.9681 163.958 44.7322C164.453 44.5199 164.878 44.2133 165.255 43.8123C165.609 43.4349 165.892 42.9632 166.104 42.4207C166.293 41.9018 166.411 41.3121 166.411 40.6989C166.411 40.1092 166.293 39.5431 166.104 39.0242C165.915 38.5053 165.632 38.0336 165.278 37.6326C164.925 37.2552 164.5 36.9486 163.981 36.7127C163.462 36.4768 162.92 36.3589 162.307 36.3589C161.693 36.3589 161.151 36.4769 160.655 36.6891C160.137 36.925 159.712 37.2316 159.358 37.609C158.981 37.9864 158.698 38.4581 158.509 38.977C158.297 39.4959 158.202 40.0856 158.202 40.6989ZM175.043 35.0616H176.671V33.0331C176.671 31.8302 176.954 30.9103 177.567 30.2499C178.157 29.5895 179.053 29.2593 180.232 29.2593C180.704 29.2593 181.152 29.3301 181.624 29.448V31.0047C181.388 30.934 181.176 30.8868 180.987 30.8632C180.799 30.8396 180.586 30.816 180.35 30.816C179.737 30.816 179.265 31.0047 178.982 31.3821C178.699 31.7595 178.558 32.2312 178.558 32.8209V35.0616H181.152V36.6183H178.558V46.3597H176.671V36.6183H175.043V35.0616ZM182.705 35.0616H184.568V46.3597H182.705V35.0616ZM182.493 30.1556H184.804V32.3492H182.493V30.1556ZM187.464 35.0616H189.328V36.4768H189.375C189.894 35.8164 190.46 35.3447 191.073 35.0852C191.686 34.8258 192.323 34.6842 192.936 34.6842C193.455 34.6842 193.974 34.7786 194.493 34.9437C195.012 35.1324 195.507 35.4154 195.932 35.8164C196.356 36.2174 196.687 36.7363 196.97 37.3731C197.253 38.0335 197.394 38.8355 197.394 39.779V46.3597H195.531V39.8969C195.531 38.7647 195.271 37.8921 194.753 37.2788C194.234 36.6655 193.55 36.3589 192.653 36.3589C191.615 36.3589 190.814 36.7127 190.224 37.3731C189.611 38.0335 189.328 39.0242 189.328 40.3451V46.3597H187.464V35.0616ZM200.148 35.0616H202.011V46.3597H200.148V35.0616ZM199.936 30.1556H202.247V32.3492H199.936V30.1556ZM210.215 37.7741C210.12 37.3496 209.908 36.9722 209.578 36.6891C209.248 36.4061 208.847 36.2646 208.398 36.2646C207.809 36.2646 207.361 36.4297 207.054 36.7127C206.747 37.0193 206.606 37.3731 206.606 37.7741C206.606 37.9628 206.629 38.1279 206.677 38.293C206.724 38.4581 206.842 38.6232 207.03 38.7647C207.196 38.9298 207.431 39.095 207.738 39.2601C208.045 39.4252 208.469 39.5903 208.988 39.7318C209.601 39.9441 210.12 40.18 210.545 40.4394C210.969 40.6989 211.3 40.9819 211.559 41.2885C211.795 41.5951 211.984 41.9254 212.102 42.2556C212.196 42.6094 212.267 42.9632 212.267 43.3406C212.267 44.3784 211.913 45.2275 211.229 45.8408C210.521 46.454 209.601 46.7606 208.446 46.7606C207.809 46.7606 207.266 46.6899 206.795 46.5012C206.323 46.3361 205.922 46.1002 205.592 45.7936C205.261 45.487 204.978 45.1332 204.79 44.7086C204.577 44.284 204.436 43.8359 204.342 43.3406H206.229C206.323 43.8595 206.559 44.2841 206.913 44.6379C207.266 44.9917 207.809 45.1568 208.516 45.1568C209.13 45.1568 209.601 45.0153 209.932 44.685C210.238 44.3548 210.403 43.9538 210.403 43.4821C210.403 43.2462 210.356 43.034 210.309 42.8217C210.238 42.633 210.12 42.4207 209.932 42.232C209.743 42.0433 209.483 41.8782 209.153 41.7131C208.823 41.548 208.398 41.3829 207.88 41.1942C206.795 40.864 206.016 40.4158 205.521 39.8498C205.002 39.3073 204.766 38.5996 204.766 37.7505C204.766 37.3495 204.837 36.9722 204.978 36.5948C205.12 36.2174 205.356 35.8871 205.662 35.6041C205.945 35.3211 206.323 35.1088 206.771 34.9437C207.196 34.7786 207.714 34.6842 208.304 34.6842C208.87 34.6842 209.389 34.7786 209.814 34.9437C210.238 35.1088 210.616 35.3211 210.922 35.6041C211.229 35.8871 211.488 36.2174 211.677 36.5948C211.866 36.9722 212.007 37.3496 212.102 37.7741H210.215ZM214.574 29.3772H216.437V36.4768H216.484C217.003 35.8164 217.593 35.3447 218.206 35.0852C218.819 34.8258 219.432 34.6842 220.046 34.6842C220.565 34.6842 221.083 34.7786 221.602 34.9437C222.121 35.1324 222.617 35.4154 223.041 35.7928C223.466 36.1938 223.796 36.7127 224.079 37.3731C224.362 38.0335 224.504 38.8355 224.504 39.779V46.3597H222.64V39.8733C222.64 38.7412 222.381 37.8921 221.862 37.2788C221.343 36.6655 220.659 36.3589 219.763 36.3589C218.725 36.3589 217.923 36.6891 217.333 37.3495C216.72 38.01 216.437 39.0006 216.437 40.3215V46.3597H214.574V29.3772Z" fill="white"/>
</g>
<defs>
<clipPath id="clip0_754_73">
<rect width="223.925" height="46.4794" fill="white" transform="translate(0.578125 0.28125)"/>
</clipPath>
</defs>
</svg>
