<svg width="30" height="27" viewBox="0 0 30 27" fill="none" xmlns="http://www.w3.org/2000/svg">
<g clip-path="url(#clip0_1042_521)">
<path d="M28.3413 0H1.34958C0.991647 0 0.64838 0.142192 0.395279 0.39528C0.142192 0.64838 0 0.991647 0 1.34958V25.6421C0 26 0.142192 26.3433 0.395279 26.5964C0.64838 26.8494 0.991647 26.9917 1.34958 26.9917H28.3413C28.6992 26.9917 29.0425 26.8494 29.2955 26.5964C29.5486 26.3433 29.6908 26 29.6908 25.6421V1.34958C29.6908 0.991647 29.5486 0.64838 29.2955 0.39528C29.0425 0.142192 28.6992 0 28.3413 0ZM26.9917 24.2925H2.69917V2.69917H26.9917V24.2925ZM5.39833 18.8942C5.39833 18.5363 5.54053 18.1929 5.79361 17.9399C6.04671 17.6868 6.38998 17.5446 6.74792 17.5446H7.01783C9.32289 17.5507 11.6063 17.0996 13.7359 16.2175C15.8654 15.3353 17.799 14.0397 19.4246 12.4054L19.685 12.1463H17.5446C17.1867 12.1463 16.8433 12.004 16.5903 11.751C16.3372 11.4979 16.195 11.1546 16.195 10.7967C16.195 10.4387 16.3372 10.0955 16.5903 9.84236C16.8433 9.58928 17.1867 9.44708 17.5446 9.44708H22.9429C23.1198 9.44793 23.295 9.48323 23.4585 9.551C23.705 9.65292 23.9158 9.82567 24.0643 10.0474C24.2127 10.2691 24.2922 10.5298 24.2925 10.7967V16.195C24.2925 16.5529 24.1503 16.8962 23.8972 17.1493C23.6442 17.4023 23.3008 17.5446 22.9429 17.5446C22.585 17.5446 22.2417 17.4023 21.9886 17.1493C21.7356 16.8962 21.5933 16.5529 21.5933 16.195V14.0546L21.3342 14.3137C19.4587 16.1999 17.2276 17.6952 14.7702 18.7132C12.3128 19.731 9.67775 20.2513 7.01783 20.2438H6.74792C6.38998 20.2438 6.04671 20.1015 5.79361 19.8485C5.54053 19.5954 5.39833 19.2521 5.39833 18.8942ZM5.79376 11.1921L6.86398 10.1219L5.79376 9.05166C5.66486 8.92716 5.56205 8.77824 5.49132 8.61358C5.42059 8.44893 5.38335 8.27184 5.3818 8.09264C5.38025 7.91344 5.41439 7.73573 5.48225 7.56988C5.55011 7.40402 5.65031 7.25334 5.77703 7.12661C5.90375 6.9999 6.05443 6.89969 6.2203 6.83183C6.38615 6.76398 6.56386 6.72983 6.74306 6.73138C6.92226 6.73294 7.09935 6.77017 7.264 6.8409C7.42866 6.91164 7.57757 7.01445 7.70207 7.14335L8.77229 8.21357L9.84251 7.14335C9.96701 7.01445 10.1159 6.91164 10.2806 6.8409C10.4452 6.77017 10.6223 6.73294 10.8015 6.73138C10.9807 6.72983 11.1584 6.76398 11.3243 6.83183C11.4902 6.89969 11.6408 6.9999 11.7675 7.12661C11.8943 7.25334 11.9945 7.40402 12.0623 7.56988C12.1302 7.73573 12.1643 7.91344 12.1628 8.09264C12.1612 8.27184 12.124 8.44893 12.0533 8.61358C11.9825 8.77824 11.8797 8.92716 11.7508 9.05166L10.6806 10.1219L11.7508 11.1921C11.8797 11.3165 11.9825 11.4655 12.0533 11.6302C12.124 11.7948 12.1612 11.9719 12.1628 12.1511C12.1643 12.3303 12.1302 12.5081 12.0623 12.6739C11.9945 12.8398 11.8943 12.9904 11.7675 13.1171C11.6408 13.2439 11.4902 13.344 11.3243 13.4119C11.1584 13.4798 10.9807 13.5139 10.8015 13.5124C10.6223 13.5108 10.4452 13.4736 10.2806 13.4028C10.1159 13.3321 9.96701 13.2293 9.84251 13.1004L8.77229 12.0302L7.70207 13.1004C7.44754 13.3463 7.10664 13.4823 6.75278 13.4792C6.39891 13.4761 6.06043 13.3342 5.8102 13.0839C5.55997 12.8337 5.41804 12.4953 5.41497 12.1414C5.4119 11.7875 5.54792 11.4466 5.79376 11.1921Z" fill="#17C5B4"/>
</g>
<defs>
<clipPath id="clip0_1042_521">
<rect width="29.6908" height="26.9917" fill="white"/>
</clipPath>
</defs>
</svg>
