<svg width="32" height="32" viewBox="0 0 32 32" fill="none" xmlns="http://www.w3.org/2000/svg">
<g clip-path="url(#clip0_1021_7)">
<path d="M0.500001 16.1897C0.49881 13.4165 1.24208 10.6938 2.65223 8.30581C4.06238 5.91786 6.08769 3.95222 8.51676 2.61409C10.9458 1.27596 13.6895 0.614431 16.4615 0.698533C19.2335 0.782639 21.932 1.6093 24.2755 3.09224L26.2626 1.10649C26.4598 0.909333 26.7112 0.775161 26.9847 0.720982C27.2582 0.666798 27.5417 0.695044 27.7991 0.80213C28.0567 0.909234 28.2766 1.09035 28.4311 1.32254C28.5854 1.55473 28.6675 1.82755 28.6667 2.1064V7.73974C28.6667 8.11325 28.5182 8.47146 28.2542 8.73558C27.9901 8.99969 27.6318 9.14807 27.2583 9.14807H21.625C21.3466 9.14801 21.0743 9.06538 20.8427 8.91062C20.6111 8.75588 20.4307 8.53595 20.3241 8.27865C20.2177 8.02135 20.1898 7.73821 20.244 7.46507C20.2984 7.19192 20.4324 6.941 20.6293 6.74404L22.2179 5.15544C20.2902 4.06541 18.1105 3.49982 15.8959 3.51507C13.6814 3.53034 11.5097 4.1259 9.59721 5.24239C7.68473 6.35888 6.09837 7.95725 4.99636 9.87812C3.89435 11.799 3.3152 13.9751 3.31667 16.1897C3.31667 16.5632 3.16829 16.9215 2.90418 17.1856C2.64006 17.4496 2.28185 17.5981 1.90833 17.5981C1.53482 17.5981 1.17661 17.4496 0.912488 17.1856C0.648383 16.9215 0.500001 16.5632 0.500001 16.1897ZM30.075 14.7814C29.7015 14.7814 29.3432 14.9297 29.0792 15.1939C28.8151 15.458 28.6667 15.8163 28.6667 16.1897C28.663 19.5502 27.3264 22.772 24.9501 25.1482C22.5739 27.5244 19.3521 28.8609 15.9917 28.8647C13.8092 28.8687 11.6634 28.3025 9.76683 27.2226L11.354 25.6354C11.5509 25.4384 11.685 25.1876 11.7393 24.9144C11.7936 24.6413 11.7658 24.3581 11.6592 24.1008C11.5526 23.8435 11.3722 23.6236 11.1406 23.4689C10.9091 23.3141 10.6368 23.2314 10.3583 23.2314H4.725C4.35148 23.2314 3.99327 23.3797 3.72915 23.6439C3.46505 23.908 3.31667 24.2663 3.31667 24.6397V30.2731C3.3166 30.5516 3.39911 30.8239 3.55379 31.0556C3.70845 31.2871 3.92834 31.4676 4.18561 31.5744C4.35648 31.6456 4.53988 31.682 4.725 31.6814C5.09849 31.6813 5.45664 31.5328 5.72069 31.2688L7.70785 29.2872C10.1834 30.8611 13.0583 31.6918 15.9917 31.6814C20.0988 31.6766 24.0364 30.0428 26.9406 27.1387C29.8447 24.2344 31.4785 20.2969 31.4833 16.1897C31.4833 15.8163 31.3349 15.458 31.0708 15.1939C30.8068 14.9297 30.4485 14.7814 30.075 14.7814Z" fill="white"/>
</g>
<defs>
<clipPath id="clip0_1021_7">
<rect width="30.9833" height="30.9901" fill="white" transform="translate(0.5 0.691406)"/>
</clipPath>
</defs>
</svg>
