<svg width="18" height="17" viewBox="0 0 18 17" fill="none" xmlns="http://www.w3.org/2000/svg">
<g clip-path="url(#clip0_1049_251)">
<path d="M17.9319 6.52232C17.9319 6.67783 17.84 6.84747 17.6562 7.03125L13.8075 10.7846L14.7193 16.0859C14.7264 16.1354 14.7299 16.2061 14.7299 16.298C14.7299 16.4464 14.6928 16.5719 14.6186 16.6744C14.5444 16.7769 14.4366 16.8281 14.2952 16.8281C14.1609 16.8281 14.0195 16.7857 13.8711 16.7009L9.11049 14.1987L4.34989 16.7009C4.19438 16.7857 4.05301 16.8281 3.92578 16.8281C3.77734 16.8281 3.66602 16.7769 3.5918 16.6744C3.51758 16.5719 3.48047 16.4464 3.48047 16.298C3.48047 16.2556 3.48754 16.1849 3.50167 16.0859L4.4135 10.7846L0.554129 7.03125C0.377418 6.8404 0.289062 6.67076 0.289062 6.52232C0.289062 6.26079 0.486979 6.09822 0.882812 6.0346L6.20536 5.2606L8.59096 0.436384C8.72526 0.146578 8.89844 0.00167465 9.11049 0.00167465C9.32254 0.00167465 9.49572 0.146578 9.63002 0.436384L12.0156 5.2606L17.3382 6.0346C17.734 6.09822 17.9319 6.26079 17.9319 6.52232Z" fill="#FFCF0F" fill-opacity="0.75"/>
</g>
<defs>
<clipPath id="clip0_1049_251">
<rect width="17.6429" height="16.8265" fill="white" transform="matrix(1 0 0 -1 0.289062 16.8281)"/>
</clipPath>
</defs>
</svg>
