<svg width="19" height="17" viewBox="0 0 19 17" fill="none" xmlns="http://www.w3.org/2000/svg">
<g clip-path="url(#clip0_754_67)">
<path d="M18.6038 6.60045C18.6038 6.75595 18.5119 6.9256 18.3281 7.10938L14.4794 10.8627L15.3912 16.1641C15.3983 16.2135 15.4018 16.2842 15.4018 16.3761C15.4018 16.5246 15.3647 16.65 15.2905 16.7525C15.2162 16.855 15.1084 16.9062 14.9671 16.9062C14.8328 16.9062 14.6914 16.8638 14.543 16.779L9.78237 14.2768L5.02176 16.779C4.86626 16.8638 4.72489 16.9062 4.59766 16.9062C4.44922 16.9062 4.33789 16.855 4.26367 16.7525C4.18945 16.65 4.15234 16.5246 4.15234 16.3761C4.15234 16.3337 4.15941 16.263 4.17355 16.1641L5.08538 10.8627L1.226 7.10938C1.04929 6.91853 0.960938 6.74888 0.960938 6.60045C0.960938 6.33891 1.15885 6.17634 1.55469 6.11272L6.87723 5.33873L9.26283 0.514509C9.39713 0.224703 9.57031 0.0797997 9.78237 0.0797997C9.99442 0.0797997 10.1676 0.224703 10.3019 0.514509L12.6875 5.33873L18.01 6.11272C18.4059 6.17634 18.6038 6.33891 18.6038 6.60045Z" fill="#FFCF0F" fill-opacity="0.75"/>
</g>
<defs>
<clipPath id="clip0_754_67">
<rect width="17.6429" height="16.8265" fill="white" transform="matrix(1 0 0 -1 0.960938 16.9062)"/>
</clipPath>
</defs>
</svg>
