<svg width="18" height="17" viewBox="0 0 18 17" fill="none" xmlns="http://www.w3.org/2000/svg">
<g clip-path="url(#clip0_754_64)">
<path d="M17.6741 6.60045C17.6741 6.75595 17.5822 6.9256 17.3984 7.10938L13.5497 10.8627L14.4615 16.1641C14.4686 16.2135 14.4721 16.2842 14.4721 16.3761C14.4721 16.5246 14.435 16.65 14.3608 16.7525C14.2866 16.855 14.1788 16.9062 14.0374 16.9062C13.9031 16.9062 13.7617 16.8638 13.6133 16.779L8.85268 14.2768L4.09208 16.779C3.93657 16.8638 3.7952 16.9062 3.66797 16.9062C3.51953 16.9062 3.4082 16.855 3.33398 16.7525C3.25977 16.65 3.22266 16.5246 3.22266 16.3761C3.22266 16.3337 3.22972 16.263 3.24386 16.1641L4.15569 10.8627L0.296317 7.10938C0.119606 6.91853 0.03125 6.74888 0.03125 6.60045C0.03125 6.33891 0.229167 6.17634 0.625 6.11272L5.94754 5.33873L8.33315 0.514509C8.46745 0.224703 8.64062 0.0797997 8.85268 0.0797997C9.06473 0.0797997 9.23791 0.224703 9.37221 0.514509L11.7578 5.33873L17.0804 6.11272C17.4762 6.17634 17.6741 6.33891 17.6741 6.60045Z" fill="#FFCF0F" fill-opacity="0.75"/>
</g>
<defs>
<clipPath id="clip0_754_64">
<rect width="17.6429" height="16.8265" fill="white" transform="matrix(1 0 0 -1 0.03125 16.9062)"/>
</clipPath>
</defs>
</svg>
