<svg width="176" height="24" viewBox="0 0 176 24" fill="none" xmlns="http://www.w3.org/2000/svg">
<g clip-path="url(#clip0_754_70)">
<path d="M11.9396 17.2208H9.46297L4.6041 10.4985H2.4577V17.2208H0.5V1.13458H5.1466C6.13724 1.13458 6.98636 1.27609 7.69397 1.55913C8.37798 1.84218 8.94407 2.21957 9.36863 2.66772C9.79319 3.11586 10.1234 3.61119 10.3121 4.17727C10.5008 4.74336 10.5951 5.30944 10.5951 5.85193C10.5951 6.41802 10.4772 6.96051 10.2885 7.45583C10.0998 7.97474 9.81678 8.42289 9.48656 8.80028C9.15635 9.17767 8.75537 9.50788 8.30722 9.76734C7.83548 10.0504 7.36375 10.2155 6.86843 10.3098L11.9396 17.2208ZM8.56668 5.85193C8.56668 4.90846 8.28364 4.20086 7.74114 3.68195C7.17506 3.18663 6.39669 2.92717 5.35887 2.92717H2.4577V8.70593H5.38246C5.90137 8.70593 6.3731 8.63517 6.77408 8.49365C7.15147 8.35213 7.48168 8.13985 7.76472 7.88039C8.02418 7.62094 8.21287 7.31431 8.35439 6.96051C8.49591 6.63029 8.56668 6.25291 8.56668 5.85193ZM18.2002 5.5453C19.2144 5.5453 20.0871 5.75759 20.7947 6.13497C21.5023 6.51236 22.092 7.00768 22.5402 7.57376C22.9647 8.13985 23.2949 8.77669 23.4836 9.46071C23.6723 10.1683 23.7902 10.8052 23.7902 11.4184C23.7902 11.5363 23.7667 11.6543 23.7667 11.7958C23.7667 11.9373 23.7431 12.0553 23.7431 12.1024H14.5207C14.5207 12.6213 14.615 13.1167 14.8509 13.5884C15.0631 14.0601 15.3462 14.4611 15.7236 14.8149C16.101 15.1687 16.5255 15.4517 16.9973 15.664C17.469 15.8763 17.9879 15.9707 18.5304 15.9707C19.1908 15.9707 19.7569 15.8527 20.2051 15.6169C20.6532 15.381 21.0542 15.0508 21.4316 14.6026H23.578C23.3893 14.98 23.1298 15.3338 22.8468 15.6876C22.5637 16.0414 22.2099 16.3716 21.7854 16.6547C21.3608 16.9377 20.8891 17.1736 20.3702 17.3623C19.8277 17.551 19.238 17.6217 18.5776 17.6217C17.6813 17.6217 16.8557 17.4802 16.1245 17.15C15.3698 16.8434 14.7565 16.4188 14.2376 15.8527C13.7187 15.2866 13.2941 14.6262 13.0111 13.8714C12.7281 13.1167 12.5865 12.3147 12.5865 11.4184C12.5865 10.6636 12.7045 9.90886 12.9875 9.20126C13.247 8.49365 13.6244 7.85681 14.1197 7.31431C14.5914 6.7954 15.1811 6.37084 15.8887 6.04063C16.5727 5.71041 17.3511 5.5453 18.2002 5.5453ZM18.2002 7.17279C17.6577 7.17279 17.1624 7.26713 16.7378 7.45583C16.3132 7.64452 15.9359 7.90398 15.6292 8.21061C15.299 8.54083 15.0631 8.89463 14.8745 9.2956C14.6858 9.72016 14.5914 10.1211 14.5442 10.5457H21.8325C21.7854 10.1211 21.6674 9.69658 21.4788 9.27201C21.2901 8.87104 21.0306 8.51724 20.724 8.21061C20.3938 7.90398 20.04 7.64452 19.6154 7.45583C19.1908 7.26713 18.7191 7.17279 18.2002 7.17279ZM36.9726 16.867C36.9726 18.9426 36.4772 20.5229 35.5338 21.6315C34.5903 22.7401 33.1279 23.2826 31.1466 23.2826C29.5663 23.2826 28.2926 22.9052 27.3492 22.1032C26.4057 21.3013 25.816 20.2634 25.5802 18.9662H27.4671C27.5614 19.3436 27.703 19.6974 27.8916 20.0276C28.0803 20.3578 28.3162 20.6408 28.6228 20.8767C28.9059 21.1126 29.2833 21.3013 29.7078 21.4428C30.1324 21.5843 30.6277 21.6551 31.2174 21.6551C32.4911 21.6551 33.4581 21.2777 34.1186 20.4757C34.779 19.6974 35.1092 18.5652 35.1092 17.1028V15.664H35.062C34.6375 16.1829 34.095 16.6311 33.411 17.0321C32.7034 17.433 31.8778 17.6217 30.9343 17.6217C30.156 17.6217 29.4248 17.4802 28.7172 17.1972C28.0096 16.9141 27.3963 16.5132 26.8774 15.9707C26.3349 15.4517 25.9104 14.8149 25.6037 14.0601C25.2735 13.3289 25.132 12.5034 25.132 11.5599C25.132 10.7108 25.2735 9.90885 25.5566 9.15408C25.8396 8.42289 26.2642 7.78605 26.7831 7.24356C27.302 6.72465 27.8917 6.30008 28.5993 5.99345C29.3069 5.71041 30.0616 5.5453 30.9108 5.5453C31.4297 5.5453 31.925 5.61606 32.3496 5.734C32.7741 5.87552 33.1751 6.04063 33.5289 6.22932C33.8591 6.41802 34.1657 6.63029 34.4252 6.86616C34.6611 7.10203 34.8733 7.33789 35.062 7.55017H35.1092V5.92269H36.9726V16.867ZM27.0425 11.5599C27.0425 12.126 27.1133 12.6685 27.302 13.1874C27.4671 13.7063 27.7265 14.1781 28.0803 14.579C28.4106 15.0036 28.8587 15.3338 29.3776 15.5933C29.8965 15.8527 30.4862 15.9707 31.1702 15.9707C31.7127 15.9707 32.2316 15.8763 32.7269 15.664C33.2223 15.4517 33.6704 15.1451 34.0478 14.7677C34.4252 14.3903 34.7082 13.9186 34.9441 13.3997C35.1564 12.8808 35.2743 12.2911 35.2743 11.6307C35.2743 10.9703 35.1564 10.357 34.9441 9.8145C34.7318 9.27201 34.4488 8.80028 34.095 8.3993C33.7176 8.02192 33.293 7.71529 32.7977 7.50301C32.3024 7.29073 31.7835 7.17279 31.2174 7.17279C30.5098 7.17279 29.9201 7.31431 29.4012 7.55017C28.8823 7.80963 28.4341 8.13985 28.0803 8.56441C27.7265 8.98897 27.4671 9.46071 27.302 9.97962C27.1133 10.4985 27.0425 11.041 27.0425 11.5599ZM49.3657 17.2208H47.5024V15.8291H47.4552C46.9363 16.5131 46.3938 16.9849 45.8041 17.2443C45.2144 17.5038 44.6248 17.6217 44.0351 17.6217C43.5162 17.6217 43.0209 17.551 42.5256 17.3623C42.0067 17.1972 41.5585 16.9141 41.1339 16.5131C40.7094 16.1122 40.3792 15.5933 40.1197 14.9328C39.8603 14.296 39.7423 13.494 39.7423 12.527V5.92269H41.6057V12.3855C41.6057 13.5412 41.8415 14.4139 42.3369 15.0272C42.8322 15.6404 43.4926 15.9235 44.3417 15.9235C45.3088 15.9235 46.0872 15.5933 46.6532 14.9328C47.2193 14.2724 47.5024 13.2818 47.5024 11.9609V5.92269H49.3657V17.2208ZM52.2676 0.238281H54.1309V17.2208H52.2676V0.238281ZM68.0896 17.2208H66.2262V15.7112H66.179C65.7545 16.2301 65.212 16.6783 64.528 17.0557C63.8204 17.433 62.9948 17.6217 62.0514 17.6217C61.273 17.6217 60.5418 17.4802 59.8342 17.1972C59.1266 16.9141 58.5133 16.5132 57.9944 15.9707C57.4519 15.4517 57.0274 14.8149 56.7208 14.0601C56.3905 13.3289 56.249 12.5034 56.249 11.5599C56.249 10.7108 56.3905 9.90885 56.6972 9.15408C56.9802 8.42289 57.4048 7.78605 57.9473 7.24356C58.4662 6.72465 59.103 6.30008 59.8106 5.99345C60.5182 5.71041 61.3202 5.5453 62.1693 5.5453C62.6882 5.5453 63.1363 5.61606 63.5609 5.734C63.9619 5.87552 64.3393 6.01704 64.6695 6.20573C64.9997 6.39443 65.2827 6.60671 65.5422 6.84258C65.7781 7.07845 66.0139 7.31431 66.2026 7.55017H66.2262V5.92269H68.0896V17.2208ZM58.1831 11.5599C58.1831 12.126 58.2539 12.6685 58.419 13.1874C58.5841 13.7063 58.8436 14.1781 59.1974 14.579C59.5276 15.0036 59.9757 15.3338 60.4946 15.5933C61.0135 15.8527 61.6032 15.9707 62.3108 15.9707C62.8297 15.9707 63.3486 15.8763 63.844 15.664C64.3157 15.4517 64.7638 15.1451 65.1412 14.7677C65.5186 14.3903 65.8017 13.9186 66.0375 13.3997C66.2734 12.8808 66.3913 12.2911 66.3913 11.6307C66.3913 10.9703 66.2734 10.357 66.0611 9.8145C65.8488 9.27201 65.5658 8.80028 65.1884 8.3993C64.811 8.02192 64.3865 7.71529 63.9147 7.50301C63.4194 7.29073 62.9005 7.17279 62.358 7.17279C61.6504 7.17279 61.0135 7.31431 60.4946 7.55017C59.9757 7.80963 59.5276 8.13985 59.1974 8.56441C58.8672 8.98897 58.6077 9.46071 58.4426 9.97962C58.2539 10.4985 58.1831 11.041 58.1831 11.5599ZM76.8504 7.3379C76.7089 7.31432 76.5437 7.29072 76.3786 7.26713C76.2135 7.24355 76.0012 7.21997 75.7654 7.21997C75.3408 7.21997 74.9634 7.31431 74.6096 7.45583C74.2558 7.59735 73.9492 7.83322 73.6897 8.16343C73.4303 8.49365 73.218 8.89462 73.0765 9.41353C72.935 9.93244 72.8642 10.5221 72.8642 11.2297V17.2208H71.0009V5.92269H72.8642V7.3379H72.9114C73.0057 7.14921 73.1237 6.96051 73.3124 6.74823C73.501 6.53595 73.7133 6.34726 73.9728 6.15856C74.2322 5.99346 74.5153 5.85193 74.8455 5.734C75.1757 5.61606 75.5295 5.5453 75.9069 5.5453C76.2607 5.5453 76.5673 5.56889 76.8504 5.61606V7.3379ZM91.8233 0.615668C92.9082 0.615668 93.8753 0.780771 94.7244 1.06381C95.55 1.34685 96.2576 1.72424 96.8472 2.17239C97.4369 2.64413 97.9322 3.13945 98.3096 3.68195C98.687 4.22445 98.97 4.74336 99.2059 5.26226H96.9888C96.5878 4.43673 95.9509 3.75271 95.1018 3.18663C94.2291 2.64413 93.1205 2.36109 91.7997 2.36109C90.9977 2.36109 90.2194 2.5262 89.4646 2.80924C88.7098 3.09228 88.0258 3.54042 87.4597 4.10651C86.8936 4.67259 86.4219 5.3802 86.0681 6.22932C85.7143 7.07844 85.5492 8.06909 85.5492 9.15408C85.5492 10.1211 85.6907 11.0174 86.0209 11.843C86.3275 12.6921 86.7757 13.3997 87.3418 14.013C87.9079 14.6262 88.5683 15.1215 89.3466 15.4753C90.125 15.8291 90.9741 15.9942 91.9176 15.9942C93.2385 15.9942 94.347 15.7112 95.2433 15.1215C96.1396 14.5319 96.8001 13.7535 97.2246 12.7864H99.4418C99.088 13.5412 98.687 14.2016 98.2153 14.8149C97.7435 15.4282 97.201 15.9471 96.5878 16.3716C95.9745 16.8198 95.2669 17.15 94.4886 17.3859C93.6866 17.6217 92.8139 17.7397 91.8233 17.7397C90.5732 17.7397 89.441 17.5274 88.4268 17.1028C87.4125 16.6783 86.5398 16.065 85.8086 15.2866C85.0774 14.5319 84.5114 13.612 84.1104 12.5506C83.7094 11.5128 83.5207 10.357 83.5207 9.13049C83.5207 7.90398 83.733 6.77182 84.1576 5.734C84.5821 4.69618 85.1482 3.77629 85.903 3.02151C86.6577 2.26674 87.5305 1.67707 88.5447 1.25251C89.5353 0.827944 90.6439 0.615668 91.8233 0.615668ZM101.91 0.238281H103.774V7.3379H103.821C104.34 6.67747 104.929 6.20574 105.543 5.94628C106.156 5.68683 106.769 5.5453 107.382 5.5453C107.901 5.5453 108.42 5.63965 108.939 5.80476C109.458 5.99345 109.953 6.2765 110.378 6.65389C110.803 7.05486 111.133 7.57376 111.416 8.23419C111.699 8.89462 111.84 9.69658 111.84 10.64V17.2208H109.977V10.7344C109.977 9.60223 109.718 8.7531 109.199 8.13984C108.68 7.52659 107.996 7.21997 107.099 7.21997C106.062 7.21997 105.26 7.55018 104.67 8.21061C104.057 8.87104 103.774 9.86168 103.774 11.1825V17.2208H101.91V0.238281ZM125.541 17.2208H123.678V15.7112H123.63C123.206 16.2301 122.663 16.6783 121.979 17.0557C121.272 17.433 120.446 17.6217 119.503 17.6217C118.724 17.6217 117.993 17.4802 117.286 17.1972C116.578 16.9141 115.965 16.5132 115.446 15.9707C114.903 15.4517 114.479 14.8149 114.172 14.0601C113.842 13.3289 113.7 12.5034 113.7 11.5599C113.7 10.7108 113.842 9.90885 114.148 9.15408C114.432 8.42289 114.856 7.78605 115.399 7.24356C115.917 6.72465 116.554 6.30008 117.262 5.99345C117.97 5.71041 118.771 5.5453 119.621 5.5453C120.14 5.5453 120.588 5.61606 121.012 5.734C121.413 5.87552 121.791 6.01704 122.121 6.20573C122.451 6.39443 122.734 6.60671 122.994 6.84258C123.229 7.07845 123.465 7.31431 123.654 7.55017H123.678V5.92269H125.541V17.2208ZM115.634 11.5599C115.634 12.126 115.705 12.6685 115.87 13.1874C116.035 13.7063 116.295 14.1781 116.649 14.579C116.979 15.0036 117.427 15.3338 117.946 15.5933C118.465 15.8527 119.055 15.9707 119.762 15.9707C120.281 15.9707 120.8 15.8763 121.295 15.664C121.767 15.4517 122.215 15.1451 122.593 14.7677C122.97 14.3903 123.253 13.9186 123.489 13.3997C123.725 12.8808 123.843 12.2911 123.843 11.6307C123.843 10.9703 123.725 10.357 123.512 9.8145C123.3 9.27201 123.017 8.80028 122.64 8.3993C122.262 8.02192 121.838 7.71529 121.366 7.50301C120.871 7.29073 120.352 7.17279 119.809 7.17279C119.102 7.17279 118.465 7.31431 117.946 7.55017C117.427 7.80963 116.979 8.13985 116.649 8.56441C116.318 8.98897 116.059 9.46071 115.894 9.97962C115.705 10.4985 115.634 11.041 115.634 11.5599ZM127.226 5.92269H128.712V2.31392H130.575V5.92269H133.594V7.47942H130.575V13.4469C130.575 13.9186 130.599 14.296 130.669 14.6026C130.74 14.9093 130.858 15.1451 131 15.3102C131.141 15.4989 131.33 15.6169 131.566 15.6876C131.778 15.7584 132.037 15.782 132.344 15.782C132.792 15.782 133.24 15.7348 133.712 15.5933V17.1264C133.24 17.2915 132.651 17.3623 131.967 17.3623C131.259 17.3623 130.716 17.2679 130.292 17.0557C129.867 16.8434 129.537 16.5603 129.301 16.1829C129.065 15.8056 128.9 15.381 128.83 14.9093C128.735 14.4375 128.712 13.9186 128.712 13.3761V7.47942H127.226V5.92269ZM151.433 8.63517V8.84745C151.433 10.1211 151.244 11.3005 150.867 12.3855C150.49 13.4705 149.947 14.4139 149.24 15.2159C148.532 16.0178 147.659 16.6311 146.645 17.0792C145.631 17.5274 144.499 17.7397 143.248 17.7397C141.998 17.7397 140.866 17.5038 139.852 17.0321C138.814 16.5603 137.941 15.9471 137.21 15.1451C136.479 14.3668 135.913 13.4705 135.512 12.4326C135.111 11.3948 134.922 10.3098 134.922 9.17767C134.922 8.02192 135.135 6.91333 135.559 5.87551C135.984 4.8377 136.55 3.9414 137.305 3.16304C138.036 2.38468 138.909 1.77142 139.946 1.29968C140.961 0.851535 142.069 0.615668 143.272 0.615668C144.263 0.615668 145.159 0.733598 145.961 0.969465C146.763 1.20533 147.494 1.53555 148.131 1.96011C148.768 2.38467 149.31 2.88 149.782 3.44608C150.23 4.01216 150.584 4.62541 150.867 5.28584H148.697C148.272 4.43672 147.612 3.72912 146.669 3.18663C145.725 2.64413 144.593 2.36109 143.272 2.36109C142.281 2.36109 141.385 2.54979 140.607 2.90359C139.828 3.28098 139.168 3.75271 138.625 4.36597C138.083 4.97922 137.658 5.71041 137.375 6.51236C137.092 7.31431 136.951 8.18702 136.951 9.08332C136.951 10.1447 137.116 11.0882 137.446 11.9373C137.776 12.7864 138.224 13.5176 138.814 14.1309C139.38 14.7441 140.064 15.1923 140.866 15.5225C141.645 15.8527 142.494 15.9942 143.414 15.9942C144.216 15.9942 144.97 15.8527 145.678 15.5697C146.386 15.2866 146.999 14.9093 147.518 14.4139C148.037 13.9186 148.438 13.3289 148.768 12.6449C149.074 11.9845 149.263 11.2297 149.357 10.4278H142.47V8.63517H151.433ZM162.291 6.13497C162.291 5.1915 161.984 4.43672 161.395 3.82347C160.805 3.2338 159.862 2.92717 158.564 2.92717H155.687V9.31918H158.494C159.225 9.31918 159.838 9.24843 160.333 9.08332C160.805 8.91821 161.206 8.68235 161.489 8.3993C161.772 8.11626 161.984 7.76246 162.102 7.38507C162.22 7.00768 162.291 6.58312 162.291 6.13497ZM153.729 1.13458H158.399C159.248 1.13458 160.05 1.25251 160.782 1.44121C161.489 1.6299 162.126 1.93652 162.645 2.3375C163.164 2.76206 163.565 3.28098 163.848 3.89423C164.131 4.50749 164.296 5.23867 164.296 6.0878C164.296 7.64452 163.801 8.84745 162.834 9.74375C161.867 10.64 160.333 11.0882 158.234 11.0882H155.687V17.2208H153.729V1.13458ZM168.92 2.92717H164.698V1.13458H175.1V2.92717H170.878V17.2208H168.92V2.92717Z" fill="#999999"/>
</g>
<defs>
<clipPath id="clip0_754_70">
<rect width="174.6" height="23.0443" fill="white" transform="translate(0.5 0.238281)"/>
</clipPath>
</defs>
</svg>
