<svg width="11" height="9" viewBox="0 0 11 9" fill="none" xmlns="http://www.w3.org/2000/svg">
<g clip-path="url(#clip0_687_104)">
<path fill-rule="evenodd" clip-rule="evenodd" d="M9.73549 0.719934C9.80374 0.6503 9.88519 0.594981 9.97508 0.557217C10.065 0.519452 10.1615 0.5 10.259 0.5C10.3565 0.5 10.453 0.519452 10.5429 0.557217C10.6328 0.594981 10.7142 0.6503 10.7825 0.719934C11.0685 1.00893 11.0725 1.47593 10.7925 1.76993L4.87949 8.75993C4.81236 8.83366 4.73089 8.8929 4.64007 8.93406C4.54925 8.97521 4.45099 8.9974 4.3513 8.99927C4.25161 9.00115 4.15258 8.98266 4.06028 8.94495C3.96798 8.90723 3.88435 8.85108 3.81449 8.77993L0.216492 5.13393C0.077729 4.99242 0 4.80213 0 4.60393C0 4.40574 0.077729 4.21545 0.216492 4.07393C0.284738 4.0043 0.36619 3.94898 0.45608 3.91122C0.54597 3.87345 0.642491 3.854 0.739992 3.854C0.837493 3.854 0.934014 3.87345 1.0239 3.91122C1.11379 3.94898 1.19525 4.0043 1.26349 4.07393L4.31549 7.16693L9.71549 0.741934C9.72171 0.734206 9.72839 0.726859 9.73549 0.719934Z" fill="white" fill-opacity="0.75"/>
</g>
<defs>
<clipPath id="clip0_687_104">
<rect width="10.9998" height="8.4994" fill="white" transform="translate(0 0.5)"/>
</clipPath>
</defs>
</svg>
