<svg width="12" height="10" viewBox="0 0 12 10" fill="none" xmlns="http://www.w3.org/2000/svg">
<g clip-path="url(#clip0_754_62)">
<path fill-rule="evenodd" clip-rule="evenodd" d="M10.6027 0.844934C10.6709 0.7753 10.7524 0.719981 10.8423 0.682217C10.9322 0.644452 11.0287 0.625 11.1262 0.625C11.2237 0.625 11.3202 0.644452 11.4101 0.682217C11.5 0.719981 11.5814 0.7753 11.6497 0.844934C11.9357 1.13393 11.9397 1.60093 11.6597 1.89493L5.74668 8.88493C5.67955 8.95866 5.59808 9.0179 5.50726 9.05906C5.41644 9.10021 5.31818 9.1224 5.21849 9.12427C5.11879 9.12615 5.01977 9.10766 4.92747 9.06995C4.83517 9.03223 4.75153 8.97608 4.68168 8.90493L1.08368 5.25893C0.944917 5.11742 0.867188 4.92713 0.867188 4.72893C0.867188 4.53074 0.944917 4.34045 1.08368 4.19893C1.15193 4.1293 1.23338 4.07398 1.32327 4.03622C1.41316 3.99845 1.50968 3.979 1.60718 3.979C1.70468 3.979 1.8012 3.99845 1.89109 4.03622C1.98098 4.07398 2.06243 4.1293 2.13068 4.19893L5.18268 7.29193L10.5827 0.866934C10.5889 0.859206 10.5956 0.851859 10.6027 0.844934Z" fill="white" fill-opacity="0.75"/>
</g>
<defs>
<clipPath id="clip0_754_62">
<rect width="10.9998" height="8.4994" fill="white" transform="translate(0.867188 0.625)"/>
</clipPath>
</defs>
</svg>
