<svg width="58" height="59" viewBox="0 0 58 59" fill="none" xmlns="http://www.w3.org/2000/svg">
<g clip-path="url(#clip0_687_113)">
<path d="M54.1603 23.812C54.8109 21.8526 55.0359 19.777 54.8203 17.7237C54.6047 15.6705 53.9534 13.6868 52.9099 11.9054C51.3629 9.21269 49.0008 7.08083 46.1642 5.81714C43.3275 4.55345 40.1628 4.22323 37.1264 4.87408C35.4013 2.95517 33.2016 1.52396 30.7484 0.724193C28.2951 -0.0755783 25.6746 -0.215752 23.15 0.317751C20.6255 0.851254 18.2857 2.03965 16.3658 3.76358C14.4458 5.48751 13.0133 7.68628 12.2121 10.1391C10.1891 10.5539 8.27808 11.3957 6.60656 12.6082C4.93504 13.8208 3.54158 15.3761 2.51931 17.1704C0.955533 19.8585 0.287188 22.9744 0.610893 26.0675C0.934599 29.1605 2.23358 32.0705 4.32004 34.3767C3.66702 36.3351 3.43974 38.4104 3.6534 40.4637C3.86707 42.517 4.51676 44.501 5.55901 46.2831C7.10793 48.9767 9.47209 51.1091 12.3108 52.3727C15.1494 53.6364 18.316 53.9662 21.3542 53.3146C22.7247 54.858 24.4087 56.0912 26.2938 56.9319C28.1789 57.7726 30.2216 58.2015 32.2857 58.1899C35.398 58.1928 38.4306 57.2066 40.946 55.3737C43.4613 53.5409 45.3291 50.9561 46.2799 47.9926C48.3026 47.5771 50.2133 46.735 51.8848 45.5224C53.5562 44.3099 54.9498 42.7549 55.9726 40.9611C57.5179 38.2768 58.1748 35.1727 57.8493 32.0926C57.5237 29.0125 56.2325 26.1139 54.1603 23.812ZM32.2857 54.3814C29.7367 54.3854 27.2678 53.4921 25.3116 51.8579L25.6556 51.663L37.241 44.9755C37.5294 44.8064 37.7688 44.5652 37.9357 44.2755C38.1026 43.9859 38.1914 43.6579 38.1932 43.3236V26.9894L43.0908 29.8228C43.115 29.8351 43.136 29.8529 43.152 29.8748C43.168 29.8967 43.1786 29.9221 43.183 29.9489V43.4844C43.1768 46.3726 42.0267 49.1408 39.9844 51.183C37.9421 53.2253 35.1739 54.3753 32.2857 54.3814ZM8.8625 44.379C7.58419 42.1717 7.12522 39.5844 7.56632 37.0721L7.91061 37.2786L19.5074 43.9661C19.7943 44.1345 20.121 44.2233 20.4537 44.2233C20.7864 44.2233 21.1131 44.1345 21.4 43.9661L35.5664 35.7989V41.454C35.565 41.4833 35.5571 41.512 35.5432 41.5378C35.5292 41.5636 35.5097 41.5859 35.4859 41.6031L23.7514 48.3709C21.2471 49.8135 18.2727 50.2034 15.4811 49.455C12.6896 48.7066 10.3092 46.881 8.8625 44.379ZM5.8114 19.1435C7.09858 16.922 9.13025 15.2276 11.5468 14.3603V28.1251C11.5424 28.4577 11.6274 28.7853 11.7928 29.0738C11.9582 29.3623 12.1981 29.6011 12.4873 29.7653L26.5847 37.8981L21.6868 40.7312C21.6603 40.7453 21.6308 40.7527 21.6008 40.7527C21.5708 40.7527 21.5412 40.7453 21.5147 40.7312L9.80324 33.9751C7.30364 32.5262 5.48008 30.1459 4.7319 27.3552C3.98371 24.5646 4.37188 21.5913 5.8114 19.0863V19.1435ZM46.0505 28.4922L31.9072 20.2792L36.7937 17.4569C36.8202 17.4429 36.8498 17.4355 36.8798 17.4355C36.9098 17.4355 36.9393 17.4429 36.9658 17.4569L48.6773 24.2247C50.468 25.2579 51.9278 26.7792 52.8863 28.611C53.8448 30.4428 54.2624 32.5094 54.0904 34.5697C53.9185 36.6299 53.164 38.5987 51.915 40.2462C50.6661 41.8937 48.9743 43.1519 47.0371 43.874V30.1091C47.0269 29.7772 46.9306 29.4535 46.7576 29.17C46.5846 28.8865 46.3411 28.6531 46.0505 28.4922ZM50.9256 21.1624L50.5813 20.9559L39.0076 14.2112C38.7189 14.0417 38.3902 13.9524 38.0555 13.9524C37.7207 13.9524 37.392 14.0417 37.1033 14.2112L22.9488 22.3781V16.7233C22.9458 16.6945 22.9506 16.6655 22.9628 16.6392C22.9749 16.613 22.9939 16.5905 23.0177 16.5741L34.7292 9.81781C36.5241 8.78376 38.5764 8.28216 40.6459 8.37168C42.7155 8.46119 44.7168 9.13812 46.4157 10.3233C48.1147 11.5085 49.4411 13.1529 50.2398 15.0642C51.0385 16.9755 51.2764 19.0748 50.9259 21.1164L50.9256 21.1624ZM20.2757 31.1874L15.3781 28.3656C15.3536 28.3509 15.3326 28.3309 15.3167 28.3071C15.3008 28.2834 15.2903 28.2564 15.2859 28.2281V14.7273C15.2886 12.6562 15.8809 10.6286 16.9935 8.88167C18.106 7.13472 19.6929 5.74059 21.5686 4.86229C23.4443 3.98399 25.5313 3.65781 27.5855 3.92189C29.6398 4.18598 31.5764 5.0294 33.1689 6.35356L32.8247 6.54874L21.2395 13.2357C20.9512 13.4049 20.7118 13.6461 20.5448 13.9357C20.3779 14.2253 20.2892 14.5533 20.2874 14.8876L20.2757 31.1874ZM22.937 25.4522L29.2457 21.8159L35.5664 25.4522V32.7245L29.2688 36.3607L22.9486 32.7245L22.937 25.4522Z" fill="black"/>
</g>
<defs>
<clipPath id="clip0_687_113">
<rect width="57.3993" height="58.1902" fill="white" transform="translate(0.53125)"/>
</clipPath>
</defs>
</svg>
