<svg width="30" height="278" viewBox="0 0 30 278" fill="none" xmlns="http://www.w3.org/2000/svg">
<g clip-path="url(#clip0_1024_193)">
<path d="M26.7501 100.313L28.2282 101.533L29.129 100.442L28.3518 99.2595L26.7501 100.313ZM26.7501 188.008L28.2675 189.179L29.1478 188.038L28.2968 186.876L26.7501 188.008ZM26.7501 277.619L24.1396 255.64L6.41033 268.89L26.7501 277.619ZM25.1924 0L23.0659 2.96514L26.1812 5.19929L28.3077 2.23425L25.1924 0ZM18.813 8.89532L14.56 14.8255L17.6753 17.0596L21.9283 11.1295L18.813 8.89532ZM10.307 20.7557L8.18062 23.7207L11.2958 25.955L13.4224 22.9898L10.307 20.7557ZM8.18062 23.7207C7.30837 24.9368 6.50445 26.1867 5.76877 27.4651L9.09159 29.3772C9.76372 28.2092 10.4984 27.0668 11.2958 25.955L8.18062 23.7207ZM2.12798 35.5815C1.18541 38.4152 0.535982 41.324 0.180526 44.2615L3.98641 44.7221C4.31122 42.0377 4.90467 39.3801 5.76571 36.7915L2.12798 35.5815ZM0 53.1545C0.235952 56.1041 0.766807 59.0368 1.5936 61.9064L5.27739 60.845C4.52217 58.2237 4.03702 55.5442 3.82147 52.8488L0 53.1545ZM4.90208 70.1639C5.58514 71.471 6.33778 72.7525 7.15991 74.0031L10.3633 71.8972C9.61162 70.7538 8.92387 69.5826 8.29975 68.3883L4.90208 70.1639ZM7.15991 74.0031L9.40844 77.4231L12.6118 75.3174L10.3633 71.8972L7.15991 74.0031ZM13.9056 84.2642L18.4027 91.1044L21.6061 88.9988L17.109 82.1586L13.9056 84.2642ZM22.8998 97.9456L25.1484 101.366L28.3518 99.2595L26.1032 95.8399L22.8998 97.9456ZM25.2719 99.0928L22.6977 102.21L25.654 104.652L28.2282 101.533L25.2719 99.0928ZM17.5493 108.447L14.9751 111.565L17.9314 114.006L20.5056 110.887L17.5493 108.447ZM14.9751 111.565C14.0951 112.63 13.2656 113.725 12.4868 114.843L15.6333 117.033C16.3524 116 17.1184 114.99 17.9314 114.006L14.9751 111.565ZM8.36109 121.961C7.17735 124.46 6.21233 127.037 5.46668 129.663L9.15456 130.711C9.84279 128.287 10.7333 125.909 11.8256 123.603L8.36109 121.961ZM3.88041 137.735C3.57477 140.465 3.49456 143.215 3.64071 145.957L7.4689 145.753C7.33396 143.221 7.40804 140.682 7.6902 138.162L3.88041 137.735ZM4.75401 154.108C5.34535 156.773 6.15865 159.402 7.19479 161.965L10.7491 160.528C9.79305 158.163 9.04242 155.737 8.49661 153.278L4.75401 154.108ZM10.8989 169.311C11.6112 170.473 12.3755 171.614 13.1919 172.73L16.2853 170.466C15.5312 169.435 14.8253 168.381 14.1676 167.309L10.8989 169.311ZM13.1919 172.73L16.1948 176.833L19.2882 174.568L16.2853 170.466L13.1919 172.73ZM22.2005 185.037L25.2033 189.139L28.2968 186.876L25.2939 182.773L22.2005 185.037ZM25.2326 186.836L22.2856 190.655L25.3206 192.997L28.2675 189.179L25.2326 186.836ZM16.3916 198.292L13.4447 202.111L16.4796 204.453L19.4266 200.635L16.3916 198.292ZM13.4447 202.111C12.615 203.186 11.8349 204.287 11.1044 205.41L14.3184 207.5C14.9927 206.463 15.7132 205.446 16.4796 204.453L13.4447 202.111ZM7.26198 212.524C6.16977 215.011 5.29043 217.567 4.62414 220.166L8.3377 221.119C8.95272 218.72 9.7642 216.36 10.7721 214.065L7.26198 212.524ZM3.25811 228.134C3.01909 230.822 2.99819 233.525 3.19563 236.218L7.01902 235.937C6.83664 233.452 6.856 230.956 7.07672 228.474L3.25811 228.134ZM4.4384 244.205C5.06443 246.814 5.9042 249.384 6.95787 251.888L10.4913 250.4C9.51904 248.09 8.74407 245.718 8.16614 243.311L4.4384 244.205ZM10.6898 259.06C11.4029 260.194 12.1659 261.307 12.9788 262.395L16.0496 260.099C15.2986 259.095 14.594 258.068 13.9357 257.02L10.6898 259.06ZM12.9788 262.395L16.0378 266.488L19.1085 264.193L16.0496 260.099L12.9788 262.395Z" fill="white" fill-opacity="0.4"/>
</g>
<defs>
<clipPath id="clip0_1024_193">
<rect width="29.1478" height="277.619" fill="white"/>
</clipPath>
</defs>
</svg>
