<svg width="45" height="33" viewBox="0 0 45 33" fill="none" xmlns="http://www.w3.org/2000/svg">
<g clip-path="url(#clip0_754_72)">
<path d="M7.03349 9.12966C7.03349 10.3562 7.38392 11.3637 8.17239 12.1083C8.96087 12.853 9.83693 13.2034 10.8882 13.2034C12.0271 13.2034 12.9908 12.853 13.6917 12.0645C14.3926 11.2761 14.7868 10.3124 14.7868 9.12966C14.7868 7.94695 14.3926 7.02707 13.6479 6.3262C12.9032 5.62534 11.9833 5.27491 10.8882 5.27491C9.83693 5.27491 8.91706 5.62534 8.17239 6.3262C7.38392 7.02707 7.03349 7.94695 7.03349 9.12966ZM6.37645 22.4023C6.37645 23.7602 6.77065 24.8991 7.64673 25.7752C8.479 26.6513 9.61791 27.0893 11.0196 27.0893C12.3338 27.0893 13.3851 26.6951 14.2611 25.8628C15.1372 25.0743 15.5753 23.8916 15.5753 22.4023C15.5753 21.0006 15.1372 19.8178 14.3049 18.9418C13.4289 18.0657 12.3338 17.6276 11.0196 17.6276C9.66171 17.6276 8.56661 18.0657 7.69053 18.9418C6.81445 19.8178 6.37645 21.0006 6.37645 22.4023ZM21.664 22.7089C21.664 23.9354 21.445 25.0743 21.007 26.2132C20.5689 27.3521 19.9119 28.3158 19.0358 29.1919C18.1597 30.068 17.0208 30.7689 15.7067 31.2945C14.3488 31.8201 12.7718 32.083 10.9758 32.083C9.13607 32.083 7.55915 31.864 6.20122 31.3383C4.8433 30.8565 3.70439 30.1994 2.82831 29.3671C1.90843 28.5348 1.25137 27.5712 0.813335 26.4323C0.375295 25.3372 0.15625 24.1982 0.15625 22.9717C0.15625 21.0006 0.594302 19.3798 1.55799 18.0657C2.47787 16.7516 3.74817 15.7879 5.36892 15.087V14.9994C3.92338 14.3861 2.82829 13.5539 2.12742 12.4588C1.38275 11.3637 1.03232 10.0934 1.03232 8.60402C1.03232 7.46511 1.25137 6.41382 1.68941 5.40633C2.12745 4.39883 2.7845 3.52276 3.66058 2.73428C4.49285 1.98962 5.54414 1.37635 6.77066 0.938314C7.99717 0.500274 9.39889 0.28125 10.9758 0.28125C12.4652 0.28125 13.8231 0.500274 15.0496 0.938314C16.2323 1.37635 17.2398 1.98961 18.1159 2.69048C18.9482 3.43515 19.6052 4.26742 20.0433 5.2311C20.4813 6.19479 20.7441 7.20229 20.7441 8.25359C20.7441 9.96195 20.3061 11.4075 19.5176 12.5464C18.7292 13.7291 17.6778 14.5614 16.4075 14.9994V15.087C18.1597 15.7441 19.4738 16.7078 20.3499 18.0219C21.226 19.336 21.664 20.8691 21.664 22.7089ZM30.6546 20.5187L23.4708 10.1372H30.0852L32.7572 14.4299C32.9763 14.7804 33.1953 15.1308 33.3705 15.5688C33.5457 16.0069 33.7209 16.3573 33.8961 16.6639H34.0275C34.1589 16.3573 34.3342 16.0069 34.5094 15.6565C34.6846 15.306 34.8598 14.9118 35.0788 14.5614L37.6195 10.1372H44.1901L37.0062 20.4311L44.4967 31.1193H37.6633L34.9036 26.6075C34.6408 26.1694 34.4218 25.7314 34.2465 25.3372C34.0713 24.9867 33.8961 24.6363 33.8085 24.3296H33.6333C33.4581 24.7677 33.239 25.1619 33.0638 25.5124C32.8886 25.8628 32.6696 26.257 32.4506 26.6513L29.6909 31.1193H23.0327L30.6546 20.5187Z" fill="#01F0FF"/>
</g>
<defs>
<clipPath id="clip0_754_72">
<rect width="44.3404" height="31.8017" fill="white" transform="translate(0.15625 0.28125)"/>
</clipPath>
</defs>
</svg>
