<svg width="12" height="9" viewBox="0 0 12 9" fill="none" xmlns="http://www.w3.org/2000/svg">
<g clip-path="url(#clip0_754_58)">
<path fill-rule="evenodd" clip-rule="evenodd" d="M10.1183 0.376184C10.1866 0.30655 10.268 0.251231 10.3579 0.213467C10.4478 0.175702 10.5443 0.15625 10.6418 0.15625C10.7393 0.15625 10.8358 0.175702 10.9257 0.213467C11.0156 0.251231 11.0971 0.30655 11.1653 0.376184C11.4513 0.665184 11.4553 1.13218 11.1753 1.42618L5.2623 8.41618C5.19517 8.48991 5.1137 8.54915 5.02288 8.59031C4.93206 8.63146 4.8338 8.65365 4.73411 8.65552C4.63442 8.6574 4.5354 8.63891 4.4431 8.6012C4.35079 8.56348 4.26716 8.50733 4.1973 8.43618L0.599304 4.79018C0.460542 4.64867 0.382812 4.45838 0.382812 4.26018C0.382812 4.06199 0.460542 3.8717 0.599304 3.73018C0.66755 3.66055 0.749003 3.60523 0.838893 3.56747C0.928783 3.5297 1.0253 3.51025 1.1228 3.51025C1.22031 3.51025 1.31683 3.5297 1.40672 3.56747C1.49661 3.60523 1.57806 3.66055 1.6463 3.73018L4.6983 6.82318L10.0983 0.398184C10.1045 0.390456 10.1112 0.383109 10.1183 0.376184Z" fill="white" fill-opacity="0.75"/>
</g>
<defs>
<clipPath id="clip0_754_58">
<rect width="10.9998" height="8.4994" fill="white" transform="translate(0.382812 0.15625)"/>
</clipPath>
</defs>
</svg>
