<svg width="32" height="32" viewBox="0 0 32 32" fill="none" xmlns="http://www.w3.org/2000/svg">
<g clip-path="url(#clip0_1021_9)">
<path d="M31.0362 14.2857C31.3003 14.5497 31.4486 14.9079 31.4486 15.2814C31.4486 15.6547 31.3003 16.013 31.0362 16.277L18.7837 28.5295C16.7664 30.5252 14.041 31.641 11.2035 31.6328C8.36588 31.6246 5.64695 30.4932 3.6412 28.486C1.63545 26.4787 0.50608 23.759 0.500024 20.9214C0.493983 18.0838 1.61175 15.3592 3.60892 13.3435L12.5927 4.36111C12.7226 4.2266 12.878 4.11931 13.0498 4.0455C13.2217 3.97169 13.4064 3.93285 13.5935 3.93122C13.7805 3.9296 13.9658 3.96523 14.1389 4.03604C14.312 4.10685 14.4693 4.21143 14.6015 4.34366C14.7338 4.47589 14.8383 4.63313 14.9091 4.80622C14.98 4.9793 15.0156 5.16473 15.0139 5.35173C15.0124 5.53873 14.9735 5.72353 14.8997 5.89536C14.8259 6.06718 14.7186 6.22259 14.5841 6.3525L5.6003 15.3306C4.11484 16.816 3.28031 18.8308 3.28031 20.9316C3.28031 23.0323 4.11484 25.047 5.6003 26.5325C7.08576 28.0179 9.10048 28.8525 11.2012 28.8525C13.3021 28.8525 15.3167 28.0179 16.8022 26.5325L29.0547 14.28C29.319 14.0198 29.6756 13.8743 30.0466 13.8754C30.4177 13.8764 30.7733 14.0239 31.0362 14.2857ZM15.0207 17.1108C15.7767 17.8666 16.2917 18.8298 16.5004 19.8783C16.709 20.9268 16.6021 22.0138 16.193 23.0014C15.784 23.9892 15.0912 24.8335 14.2023 25.4274C13.3133 26.0214 12.2682 26.3385 11.1991 26.3385C10.13 26.3385 9.08493 26.0214 8.19602 25.4274C7.30711 24.8335 6.6143 23.9892 6.20525 23.0014C5.79619 22.0138 5.68924 20.9268 5.89791 19.8783C6.1066 18.8298 6.62154 17.8666 7.37762 17.1108C8.39197 16.0988 9.76631 15.5305 11.1991 15.5305C12.632 15.5305 14.0062 16.0988 15.0207 17.1108ZM13.0293 19.1022C12.7888 18.8618 12.5034 18.6709 12.1893 18.5409C11.8751 18.4108 11.5384 18.3438 11.1984 18.3438C10.8584 18.3438 10.5217 18.4108 10.2076 18.5409C9.89345 18.6709 9.60803 18.8618 9.3676 19.1022C9.12716 19.3426 8.93645 19.628 8.80633 19.9421C8.6762 20.2563 8.60924 20.593 8.60924 20.933C8.60924 21.273 8.6762 21.6097 8.80633 21.9238C8.93645 22.238 9.12716 22.5234 9.3676 22.7638C9.86039 23.2355 10.5162 23.4988 11.1984 23.4988C11.8806 23.4988 12.5365 23.2355 13.0293 22.7638C13.5143 22.278 13.7867 21.6196 13.7867 20.933C13.7867 20.2464 13.5143 19.588 13.0293 19.1022ZM24.8198 1.09659L13.9757 11.9408C13.8348 12.0694 13.7216 12.2254 13.6427 12.3991C13.564 12.5728 13.5213 12.7608 13.5174 12.9515C13.5136 13.1422 13.5484 13.3318 13.6199 13.5085C13.6915 13.6854 13.7981 13.846 13.9336 13.9803C14.0689 14.1147 14.2303 14.22 14.4076 14.2903C14.5851 14.3604 14.7749 14.3938 14.9656 14.3883C15.1563 14.383 15.3439 14.3388 15.517 14.2588C15.69 14.1786 15.8451 14.0641 15.9727 13.9223L26.8169 3.07812C27.0733 2.81251 27.2153 2.45676 27.2122 2.0875C27.2089 1.71825 27.0608 1.36501 26.7997 1.10389C26.5386 0.842785 26.1854 0.694671 25.8161 0.69146C25.4468 0.688249 25.0911 0.830195 24.8255 1.08674L24.8198 1.09659ZM22.0032 14.3547C22.2672 14.6187 22.6254 14.767 22.9989 14.767C23.3724 14.767 23.7305 14.6187 23.9946 14.3547L29.6279 8.72131C29.7624 8.59141 29.8697 8.436 29.9435 8.26418C30.0173 8.09235 30.0562 7.90755 30.0577 7.72055C30.0594 7.53357 30.0238 7.34812 29.9529 7.17503C29.8821 7.00195 29.7776 6.84471 29.6454 6.71248C29.5131 6.58025 29.3558 6.47567 29.1827 6.40486C29.0096 6.33405 28.8243 6.29842 28.6373 6.30003C28.4502 6.30167 28.2655 6.34051 28.0937 6.41432C27.9218 6.48813 27.7664 6.59542 27.6365 6.72993L22.0032 12.3633C21.7391 12.6274 21.5908 12.9855 21.5908 13.359C21.5908 13.7323 21.7391 14.0906 22.0032 14.3547ZM4.69052 6.31729C4.69052 6.03875 4.60792 5.76646 4.45317 5.53486C4.29843 5.30326 4.07847 5.12275 3.82113 5.01616C3.5638 4.90957 3.28062 4.88167 3.00744 4.93602C2.73425 4.99036 2.4833 5.12449 2.28634 5.32145C2.08939 5.51841 1.95526 5.76935 1.90091 6.04253C1.84657 6.31572 1.87446 6.5989 1.98106 6.85624C2.08765 7.11357 2.26816 7.33353 2.49976 7.48827C2.73136 7.64302 3.00365 7.72562 3.28219 7.72562C3.65569 7.72562 4.01391 7.57725 4.27803 7.31313C4.54214 7.04901 4.69052 6.6908 4.69052 6.31729ZM28.6322 26.7381C28.6322 26.3203 28.5083 25.9119 28.2762 25.5644C28.0441 25.2171 27.7141 24.9463 27.3281 24.7865C26.9421 24.6265 26.5173 24.5847 26.1076 24.6662C25.6978 24.7477 25.3214 24.9489 25.0259 25.2443C24.7306 25.5398 24.5293 25.9162 24.4478 26.3259C24.3662 26.7358 24.408 27.1605 24.568 27.5465C24.7279 27.9326 24.9987 28.2625 25.346 28.4946C25.6934 28.7267 26.1018 28.8506 26.5197 28.8506C27.0799 28.8506 27.6172 28.628 28.0134 28.2318C28.4097 27.8357 28.6322 27.2984 28.6322 26.7381Z" fill="white"/>
</g>
<defs>
<clipPath id="clip0_1021_9">
<rect width="30.9486" height="30.9414" fill="white" transform="translate(0.5 0.691406)"/>
</clipPath>
</defs>
</svg>
