<svg width="26" height="32" viewBox="0 0 26 32" fill="none" xmlns="http://www.w3.org/2000/svg">
<g clip-path="url(#clip0_1021_8)">
<path d="M1.40215 8.08119L12.6688 12.7752C12.8403 12.8477 13.0248 12.885 13.211 12.885C13.3973 12.885 13.5817 12.8477 13.7532 12.7752L25.0199 8.08119C25.2761 7.974 25.4948 7.79349 25.6487 7.56233C25.8025 7.33116 25.8846 7.05968 25.8846 6.782C25.8846 6.50432 25.8025 6.23283 25.6487 6.00167C25.4948 5.77052 25.2761 5.59 25.0199 5.48281L13.7532 0.787428C13.4061 0.643774 13.016 0.643774 12.6688 0.787428L1.40215 5.48281C1.14599 5.59 0.927231 5.77052 0.773384 6.00167C0.619524 6.23283 0.537432 6.50432 0.537432 6.782C0.537432 7.05968 0.619524 7.33116 0.773384 7.56233C0.927231 7.79349 1.14599 7.974 1.40215 8.08119ZM13.211 3.61254L20.816 6.7813L13.211 9.95005L5.60602 6.7813L13.211 3.61254ZM25.0199 14.3398L13.7532 19.0338C13.5814 19.1055 13.3972 19.1424 13.211 19.1424C13.0248 19.1424 12.8406 19.1055 12.6688 19.0338L1.40215 14.3398C1.23144 14.2686 1.07644 14.1645 0.945976 14.0334C0.815522 13.9023 0.712164 13.7468 0.641804 13.5757C0.571443 13.4047 0.53546 13.2214 0.535925 13.0364C0.536376 12.8515 0.57326 12.6684 0.644465 12.4977C0.715671 12.327 0.819803 12.172 0.950919 12.0415C1.08202 11.9111 1.23754 11.8077 1.4086 11.7374C1.57966 11.667 1.76289 11.631 1.94785 11.6315C2.13281 11.6319 2.31586 11.6688 2.48657 11.74L13.211 16.2101L23.9355 11.7414C24.2802 11.5976 24.6679 11.5967 25.0134 11.7388C25.3589 11.8809 25.6338 12.1544 25.7776 12.4991C25.9214 12.8439 25.9223 13.2316 25.7802 13.5771C25.6381 13.9225 25.3646 14.1975 25.0199 14.3412V14.3398ZM25.0199 20.5985L13.7532 25.2939C13.5814 25.3655 13.3972 25.4024 13.211 25.4024C13.0248 25.4024 12.8406 25.3655 12.6688 25.2939L1.40215 20.5985C1.23144 20.5272 1.07644 20.4231 0.945976 20.292C0.815522 20.1609 0.712164 20.0054 0.641804 19.8343C0.571443 19.6633 0.53546 19.48 0.535925 19.2951C0.536376 19.1101 0.57326 18.9271 0.644465 18.7564C0.715671 18.5857 0.819803 18.4306 0.950919 18.3002C1.08202 18.1697 1.23754 18.0664 1.4086 17.996C1.57966 17.9256 1.76289 17.8897 1.94785 17.8901C2.13281 17.8905 2.31586 17.9274 2.48657 17.9987L13.211 22.4687L23.9355 18.0015C24.2802 17.8577 24.6679 17.8567 25.0134 17.9988C25.3589 18.1409 25.6338 18.4144 25.7776 18.7592C25.9214 19.1039 25.9223 19.4917 25.7802 19.8371C25.6381 20.1826 25.3646 20.4575 25.0199 20.6013V20.5985ZM25.7776 25.0164C25.9209 25.361 25.9218 25.7485 25.7797 26.0935C25.6376 26.4387 25.3644 26.7133 25.0199 26.8571L13.7532 31.5525C13.5814 31.6242 13.3972 31.6611 13.211 31.6611C13.0248 31.6611 12.8406 31.6242 12.6688 31.5525L1.40215 26.8571C1.2265 26.7895 1.06619 26.6873 0.930695 26.5566C0.795214 26.4259 0.687293 26.2694 0.613313 26.0963C0.539333 25.9232 0.500816 25.7371 0.500013 25.5489C0.49921 25.3606 0.536136 25.1741 0.608637 25.0005C0.681138 24.8267 0.787721 24.6693 0.92209 24.5376C1.05646 24.4058 1.2159 24.3021 1.39097 24.233C1.56604 24.1638 1.75319 24.1306 1.94137 24.1349C2.12955 24.1393 2.31493 24.1814 2.48657 24.2587L13.211 28.7288L23.9355 24.2601C24.1062 24.1889 24.2892 24.152 24.4742 24.1516C24.6592 24.1511 24.8424 24.187 25.0134 24.2575C25.1845 24.3277 25.34 24.4311 25.4711 24.5617C25.6022 24.6921 25.7065 24.8457 25.7776 25.0164Z" fill="white"/>
</g>
<defs>
<clipPath id="clip0_1021_8">
<rect width="25.3861" height="30.9814" fill="white" transform="translate(0.5 0.679688)"/>
</clipPath>
</defs>
</svg>
