<svg width="19" height="17" viewBox="0 0 19 17" fill="none" xmlns="http://www.w3.org/2000/svg">
<g clip-path="url(#clip0_1049_253)">
<path d="M18.2132 6.52232C18.2132 6.67783 18.1213 6.84747 17.9375 7.03125L14.0887 10.7846L15.0006 16.0859C15.0076 16.1354 15.0112 16.2061 15.0112 16.298C15.0112 16.4464 14.9741 16.5719 14.8998 16.6744C14.8256 16.7769 14.7178 16.8281 14.5765 16.8281C14.4422 16.8281 14.3008 16.7857 14.1523 16.7009L9.39174 14.1987L4.63114 16.7009C4.47563 16.7857 4.33426 16.8281 4.20703 16.8281C4.05859 16.8281 3.94727 16.7769 3.87305 16.6744C3.79883 16.5719 3.76172 16.4464 3.76172 16.298C3.76172 16.2556 3.76879 16.1849 3.78292 16.0859L4.69475 10.7846L0.835379 7.03125C0.658668 6.8404 0.570312 6.67076 0.570312 6.52232C0.570312 6.26079 0.768229 6.09822 1.16406 6.0346L6.48661 5.2606L8.87221 0.436384C9.00651 0.146578 9.17969 0.00167465 9.39174 0.00167465C9.60379 0.00167465 9.77697 0.146578 9.91127 0.436384L12.2969 5.2606L17.6194 6.0346C18.0153 6.09822 18.2132 6.26079 18.2132 6.52232Z" fill="#FFCF0F" fill-opacity="0.75"/>
</g>
<defs>
<clipPath id="clip0_1049_253">
<rect width="17.6429" height="16.8265" fill="white" transform="matrix(1 0 0 -1 0.570312 16.8281)"/>
</clipPath>
</defs>
</svg>
