<svg width="19" height="17" viewBox="0 0 19 17" fill="none" xmlns="http://www.w3.org/2000/svg">
<g clip-path="url(#clip0_754_68)">
<path d="M18.2444 6.60045C18.2444 6.75595 18.1525 6.9256 17.9688 7.10938L14.12 10.8627L15.0318 16.1641C15.0389 16.2135 15.0424 16.2842 15.0424 16.3761C15.0424 16.5246 15.0053 16.65 14.9311 16.7525C14.8569 16.855 14.7491 16.9062 14.6077 16.9062C14.4734 16.9062 14.332 16.8638 14.1836 16.779L9.42299 14.2768L4.66239 16.779C4.50688 16.8638 4.36551 16.9062 4.23828 16.9062C4.08984 16.9062 3.97852 16.855 3.9043 16.7525C3.83008 16.65 3.79297 16.5246 3.79297 16.3761C3.79297 16.3337 3.80004 16.263 3.81417 16.1641L4.726 10.8627L0.866629 7.10938C0.689918 6.91853 0.601562 6.74888 0.601562 6.60045C0.601562 6.33891 0.799479 6.17634 1.19531 6.11272L6.51786 5.33873L8.90346 0.514509C9.03776 0.224703 9.21094 0.0797997 9.42299 0.0797997C9.63504 0.0797997 9.80822 0.224703 9.94252 0.514509L12.3281 5.33873L17.6507 6.11272C18.0465 6.17634 18.2444 6.33891 18.2444 6.60045Z" fill="#FFCF0F" fill-opacity="0.75"/>
</g>
<defs>
<clipPath id="clip0_754_68">
<rect width="17.6429" height="16.8265" fill="white" transform="matrix(1 0 0 -1 0.601562 16.9062)"/>
</clipPath>
</defs>
</svg>
