<svg width="18" height="17" viewBox="0 0 18 17" fill="none" xmlns="http://www.w3.org/2000/svg">
<g clip-path="url(#clip0_754_66)">
<path d="M17.9632 6.60045C17.9632 6.75595 17.8713 6.9256 17.6875 7.10938L13.8387 10.8627L14.7506 16.1641C14.7576 16.2135 14.7612 16.2842 14.7612 16.3761C14.7612 16.5246 14.7241 16.65 14.6498 16.7525C14.5756 16.855 14.4678 16.9062 14.3265 16.9062C14.1922 16.9062 14.0508 16.8638 13.9023 16.779L9.14174 14.2768L4.38114 16.779C4.22563 16.8638 4.08426 16.9062 3.95703 16.9062C3.80859 16.9062 3.69727 16.855 3.62305 16.7525C3.54883 16.65 3.51172 16.5246 3.51172 16.3761C3.51172 16.3337 3.51879 16.263 3.53292 16.1641L4.44475 10.8627L0.585379 7.10938C0.408668 6.91853 0.320312 6.74888 0.320312 6.60045C0.320312 6.33891 0.518229 6.17634 0.914062 6.11272L6.23661 5.33873L8.62221 0.514509C8.75651 0.224703 8.92969 0.0797997 9.14174 0.0797997C9.35379 0.0797997 9.52697 0.224703 9.66127 0.514509L12.0469 5.33873L17.3694 6.11272C17.7653 6.17634 17.9632 6.33891 17.9632 6.60045Z" fill="#FFCF0F" fill-opacity="0.75"/>
</g>
<defs>
<clipPath id="clip0_754_66">
<rect width="17.6429" height="16.8265" fill="white" transform="matrix(1 0 0 -1 0.320312 16.9062)"/>
</clipPath>
</defs>
</svg>
