<svg width="12" height="10" viewBox="0 0 12 10" fill="none" xmlns="http://www.w3.org/2000/svg">
<g clip-path="url(#clip0_754_61)">
<path fill-rule="evenodd" clip-rule="evenodd" d="M10.6027 1.04415C10.6709 0.974519 10.7524 0.9192 10.8423 0.881435C10.9322 0.843671 11.0287 0.824219 11.1262 0.824219C11.2237 0.824219 11.3202 0.843671 11.4101 0.881435C11.5 0.9192 11.5814 0.974519 11.6497 1.04415C11.9357 1.33315 11.9397 1.80015 11.6597 2.09415L5.74668 9.08415C5.67955 9.15787 5.59808 9.21712 5.50726 9.25828C5.41644 9.29943 5.31818 9.32162 5.21849 9.32349C5.11879 9.32537 5.01977 9.30688 4.92747 9.26916C4.83517 9.23145 4.75153 9.1753 4.68168 9.10415L1.08368 5.45815C0.944917 5.31664 0.867188 5.12635 0.867188 4.92815C0.867188 4.72996 0.944917 4.53967 1.08368 4.39815C1.15193 4.32852 1.23338 4.2732 1.32327 4.23544C1.41316 4.19767 1.50968 4.17822 1.60718 4.17822C1.70468 4.17822 1.8012 4.19767 1.89109 4.23544C1.98098 4.2732 2.06243 4.32852 2.13068 4.39815L5.18268 7.49115L10.5827 1.06615C10.5889 1.05842 10.5956 1.05108 10.6027 1.04415Z" fill="white" fill-opacity="0.75"/>
</g>
<defs>
<clipPath id="clip0_754_61">
<rect width="10.9998" height="8.4994" fill="white" transform="translate(0.867188 0.824219)"/>
</clipPath>
</defs>
</svg>
