<svg width="143" height="23" viewBox="0 0 143 23" fill="none" xmlns="http://www.w3.org/2000/svg">
<g clip-path="url(#clip0_754_71)">
<path d="M10.3256 6.29975C10.2649 5.5416 9.99199 4.93509 9.56743 4.44988C9.11254 3.99499 8.50603 3.75238 7.74788 3.75238C7.05039 3.75238 6.47419 3.96466 6.04963 4.35889C5.59474 4.78345 5.38246 5.299 5.38246 5.96617C5.38246 6.75464 5.68572 7.36114 6.35289 7.78571C6.98974 8.21027 7.86918 8.6045 8.96091 8.93808C11.0837 9.6659 12.5697 10.606 13.4795 11.7584C14.3589 12.9108 14.8138 14.2754 14.8138 15.8221C14.8138 16.5802 14.6622 17.3384 14.3892 18.0965C14.086 18.885 13.6614 19.5825 13.0852 20.189C12.509 20.7955 11.7812 21.311 10.9018 21.675C10.0223 22.0692 8.99124 22.2511 7.77821 22.2511C6.74713 22.2511 5.7767 22.1298 4.92757 21.8266C4.07845 21.5233 3.32031 21.0987 2.71379 20.5226C2.07695 19.9464 1.56141 19.2489 1.1975 18.3998C0.803261 17.581 0.560652 16.6409 0.5 15.5491H4.77595C4.86692 16.5196 5.17018 17.308 5.6554 17.8842C6.14061 18.4604 6.86843 18.7333 7.83886 18.7333C8.68798 18.7333 9.35515 18.4907 9.84036 17.9449C10.3256 17.4293 10.5682 16.7925 10.5682 16.0647C10.5682 15.2155 10.2649 14.518 9.68873 13.9722C9.08222 13.4566 8.14211 12.9714 6.8381 12.5469C4.77594 11.8797 3.32031 10.9699 2.47118 9.84786C1.62206 8.72581 1.1975 7.45213 1.1975 6.02682C1.1975 5.17769 1.34913 4.38921 1.71304 3.66139C2.04662 2.93357 2.50151 2.32706 3.10802 1.81152C3.68422 1.32631 4.38171 0.932077 5.20051 0.659145C5.98898 0.386212 6.86843 0.23458 7.77821 0.23458C8.74863 0.23458 9.65841 0.386201 10.4469 0.689459C11.2354 0.992718 11.9328 1.38697 12.509 1.90251C13.0852 2.44837 13.5401 3.08521 13.8737 3.81303C14.177 4.57117 14.3589 5.38997 14.4196 6.29975H10.3256ZM17.6799 7.0579H21.7739V21.584H17.6799V7.0579ZM17.589 0.113281H21.8952V4.02531H17.589V0.113281ZM25.0734 7.0579H29.1067V8.87743H29.228C29.7132 8.08896 30.3501 7.51277 31.1082 7.14886C31.8664 6.78495 32.6852 6.60299 33.5343 6.60299C35.1719 6.60299 36.5062 7.17919 37.5373 8.27092C38.5684 9.36265 39.0839 11.0306 39.0839 13.2444V21.584H34.9899V13.5173C34.9899 12.4256 34.7473 11.6068 34.2621 11.0609C33.7769 10.515 33.1097 10.2118 32.2606 10.2118C31.3508 10.2118 30.5927 10.5454 30.0165 11.1519C29.4403 11.7887 29.1674 12.6985 29.1674 13.9115V21.584H25.0734V7.0579ZM40.6925 7.0579H42.4514V2.41803H46.5757V7.0579H50.0026V10.515H46.5757V16.1556C46.5757 17.0048 46.6971 17.581 47.0003 17.8842C47.2732 18.1875 47.7281 18.3088 48.3953 18.3088C48.6682 18.3088 48.9715 18.3088 49.2747 18.2481C49.578 18.2178 49.8813 18.1571 50.1542 18.0662V21.402C49.7296 21.5233 49.2444 21.6446 48.7289 21.7053C48.183 21.7659 47.7281 21.7963 47.3036 21.7963C46.3938 21.7963 45.6053 21.6749 44.9988 21.4323C44.3923 21.1897 43.8767 20.8561 43.5128 20.4013C43.1186 19.9464 42.8457 19.4005 42.694 18.7333C42.5121 18.0965 42.4514 17.3687 42.4514 16.5802V10.515H40.6925V7.0579ZM61.8829 10.5757C61.61 10.5454 61.3067 10.515 61.0034 10.4544C60.7002 10.424 60.3363 10.3937 59.942 10.3937C58.729 10.3937 57.8192 10.7577 57.2127 11.4855C56.6062 12.2133 56.3029 13.214 56.3029 14.5181V21.584H52.2089V7.0579H56.212V9.302H56.3029C56.6972 8.6045 57.2734 7.99799 58.0012 7.45213C58.729 6.90626 59.5781 6.63333 60.5486 6.63333C61.0944 6.63333 61.519 6.69398 61.8829 6.75463V10.5757ZM78.4496 21.584H74.5072V19.7644H74.3859C73.9007 20.4013 73.2942 20.9471 72.5663 21.402C71.8082 21.8569 70.8378 22.0692 69.6551 22.0692C68.9272 22.0692 68.1994 21.9479 67.411 21.6446C66.6225 21.3414 65.925 20.8865 65.2881 20.2496C64.621 19.6431 64.1054 18.8243 63.6809 17.8539C63.2563 16.8835 63.044 15.7008 63.044 14.3058C63.044 13.1534 63.226 12.092 63.5899 11.1519C63.9538 10.2118 64.4693 9.39299 65.1062 8.72582C65.743 8.05865 66.4709 7.57344 67.32 7.20953C68.1388 6.84562 69.0182 6.66364 69.9583 6.66364C70.5042 6.66364 71.0197 6.75462 71.4746 6.87593C71.9295 6.99723 72.3541 7.1792 72.718 7.39148C73.0819 7.60376 73.3851 7.84635 73.6581 8.11929C73.931 8.39222 74.1736 8.66515 74.3859 8.93808H74.5072V7.0579H78.4496V21.584ZM67.1987 14.3361C67.1987 14.882 67.2593 15.3975 67.411 15.8827C67.5626 16.3983 67.8052 16.8531 68.1085 17.2474C68.4117 17.6416 68.7756 17.9449 69.2608 18.1875C69.7157 18.4301 70.2616 18.5211 70.9288 18.5211C71.414 18.5211 71.8689 18.4301 72.2934 18.2178C72.718 18.0359 73.1122 17.7326 73.4458 17.3687C73.7794 17.0048 74.0523 16.5802 74.2646 16.0647C74.4465 15.5491 74.5678 14.9729 74.5678 14.3664C74.5678 13.7599 74.4769 13.1837 74.2949 12.6378C74.113 12.1223 73.84 11.6674 73.5368 11.3035C73.2032 10.9396 72.809 10.6667 72.3844 10.4544C71.9295 10.2724 71.4443 10.1511 70.9591 10.1511C70.2919 10.1511 69.746 10.2724 69.2912 10.515C68.8059 10.7577 68.4117 11.0912 68.1085 11.4855C67.8052 11.8797 67.5626 12.3346 67.411 12.8198C67.2593 13.305 67.1987 13.8206 67.1987 14.3361ZM89.1115 0.901742H94.843C95.9044 0.901742 96.8749 1.02304 97.7543 1.23532C98.6338 1.4476 99.3919 1.78119 100.029 2.20575C100.635 2.63031 101.12 3.17617 101.484 3.84334C101.818 4.51051 102 5.26866 102 6.11778C102 6.7243 101.879 7.23984 101.697 7.72506C101.515 8.21027 101.242 8.60451 100.908 8.96842C100.575 9.33233 100.18 9.6659 99.7255 9.90851C99.2706 10.1511 98.7854 10.3331 98.3002 10.4544V10.515C99.0887 10.6363 99.7558 10.8486 100.362 11.1519C100.969 11.4855 101.454 11.8797 101.879 12.3346C102.273 12.7895 102.576 13.305 102.788 13.8812C102.97 14.4574 103.092 15.0336 103.092 15.6401C103.092 16.6105 102.91 17.4597 102.546 18.1875C102.182 18.9153 101.666 19.5521 101.03 20.0373C100.362 20.5529 99.6042 20.9471 98.7247 21.1897C97.8453 21.4627 96.9052 21.584 95.8741 21.584H89.1115V0.901742ZM98.7247 15.2762C98.7247 14.4271 98.4215 13.6992 97.815 13.1534C97.2085 12.6075 96.3593 12.3346 95.2676 12.3346H93.2054V18.3088H95.4496C96.511 18.3088 97.3298 18.0662 97.8756 17.5203C98.4215 17.0048 98.7247 16.2466 98.7247 15.2762ZM97.724 6.54235C97.724 5.7842 97.4511 5.20802 96.9052 4.78346C96.3593 4.35889 95.6012 4.14661 94.6308 4.14661H93.2054V9.15037H94.7824C95.8135 9.15037 96.5413 8.9381 97.0265 8.45289C97.4814 7.998 97.724 7.36114 97.724 6.54235ZM104.621 14.3058C104.621 13.214 104.803 12.1829 105.198 11.2125C105.592 10.2724 106.138 9.45363 106.835 8.75613C107.533 8.08897 108.352 7.54309 109.292 7.14886C110.232 6.78495 111.263 6.57268 112.385 6.57268C113.537 6.57268 114.568 6.78496 115.539 7.17919C116.479 7.57343 117.298 8.1193 117.965 8.78647C118.632 9.48396 119.178 10.3028 119.572 11.2429C119.936 12.2133 120.148 13.214 120.148 14.3058C120.148 15.3975 119.936 16.3983 119.572 17.3384C119.178 18.2785 118.632 19.0973 117.965 19.7947C117.267 20.5226 116.449 21.0684 115.508 21.493C114.538 21.9175 113.507 22.0995 112.385 22.0995C111.263 22.0995 110.232 21.9175 109.292 21.493C108.321 21.0988 107.502 20.5529 106.835 19.8554C106.138 19.1579 105.592 18.3391 105.198 17.3687C104.803 16.4286 104.621 15.3975 104.621 14.3058ZM108.746 14.3361C108.746 14.9426 108.837 15.5188 109.019 16.004C109.201 16.5196 109.443 16.9441 109.777 17.308C110.11 17.6719 110.505 17.9752 110.929 18.1572C111.354 18.3694 111.839 18.4604 112.385 18.4604C113.477 18.4604 114.356 18.0662 115.023 17.2777C115.66 16.4892 115.994 15.5188 115.994 14.3361C115.994 13.7902 115.903 13.2444 115.751 12.7591C115.569 12.2739 115.357 11.819 115.054 11.4551C114.75 11.0912 114.356 10.788 113.901 10.5454C113.446 10.3331 112.931 10.2118 112.385 10.2118C111.232 10.2118 110.323 10.606 109.686 11.3945C109.049 12.183 108.746 13.1534 108.746 14.3361ZM120.915 7.0579H122.674V2.41803H126.798V7.0579H130.225V10.515H126.798V16.1556C126.798 17.0048 126.92 17.581 127.223 17.8842C127.496 18.1875 127.951 18.3088 128.618 18.3088C128.891 18.3088 129.194 18.3088 129.497 18.2481C129.801 18.2178 130.104 18.1571 130.377 18.0662V21.402C129.952 21.5233 129.467 21.6446 128.952 21.7053C128.406 21.7659 127.951 21.7963 127.526 21.7963C126.616 21.7963 125.828 21.6749 125.221 21.4323C124.615 21.1897 124.099 20.8561 123.735 20.4013C123.341 19.9464 123.068 19.4005 122.917 18.7333C122.735 18.0965 122.674 17.3687 122.674 16.5802V10.515H120.915V7.0579ZM138.921 10.9699C138.861 10.4544 138.709 10.0602 138.406 9.7569C138.103 9.48397 137.708 9.33233 137.253 9.33233C136.768 9.33233 136.374 9.48396 136.131 9.72656C135.889 9.9995 135.767 10.3027 135.767 10.606C135.767 10.8183 135.798 11.0003 135.858 11.1822C135.919 11.3642 136.071 11.5158 136.283 11.6977C136.495 11.8797 136.799 12.0313 137.193 12.2133C137.557 12.3952 138.072 12.6075 138.679 12.7895C140.195 13.305 141.287 13.9419 141.924 14.7C142.53 15.4885 142.864 16.3982 142.864 17.4293C142.864 18.0965 142.712 18.7333 142.469 19.2792C142.227 19.8554 141.863 20.3406 141.378 20.7652C140.893 21.1897 140.316 21.5233 139.619 21.7659C138.921 22.0085 138.133 22.0995 137.253 22.0995C135.373 22.0995 134.009 21.6749 133.099 20.7955C132.189 19.916 131.704 18.7637 131.643 17.3384H135.313C135.343 17.9449 135.525 18.3998 135.858 18.7637C136.162 19.1276 136.677 19.3095 137.344 19.3095C137.86 19.3095 138.254 19.1579 138.557 18.8547C138.861 18.5514 139.012 18.1875 139.012 17.7629C139.012 17.2777 138.8 16.8531 138.375 16.4892C137.951 16.1556 137.223 15.7917 136.131 15.4278C134.736 15.0033 133.705 14.4271 133.008 13.6992C132.31 13.0017 131.977 12.0617 131.977 10.9093C131.977 10.2724 132.098 9.69623 132.341 9.15037C132.583 8.6045 132.947 8.14962 133.432 7.78571C133.887 7.4218 134.433 7.11854 135.07 6.90626C135.707 6.69398 136.435 6.57268 137.223 6.57268C138.83 6.57268 140.074 6.99724 140.953 7.81604C141.833 8.66516 142.348 9.69624 142.53 10.9699H138.921Z" fill="white"/>
</g>
<defs>
<clipPath id="clip0_754_71">
<rect width="142.364" height="22.1379" fill="white" transform="translate(0.5 0.113281)"/>
</clipPath>
</defs>
</svg>
